<svg viewBox="0 0 229 229" width="229" height="229" xmlns="http://www.w3.org/2000/svg">
 <defs>
  <radialGradient id="svg_36" cx="324.79" cy="787.43" fx="250.34" fy="787.43" r="74.49" gradientUnits="userSpaceOnUse" gradientTransform="matrix(1.5075125694274902,0,0,1.6504826545715332,-375.02996826171875,-1188.139404296875)">
   <stop offset="0.44" stop-color="#fde846"/>
   <stop offset="0.79" stop-color="#fde646"/>
   <stop offset="0.91" stop-color="#fddf46"/>
   <stop offset="1" stop-color="#fdd446"/>
  </radialGradient>
 </defs>
 <g>
  <title>Layer 1</title>
  <g stroke="null" id="svg_1">
   <circle stroke="null" id="svg_2" class="cls-2" cx="114.59498" cy="111.50002" r="111.31265" fill="url(#svg_36)"/>
   <path stroke="null" id="svg_3" d="m167.34284,190.26105c0,11.19027 -24.10512,-4.93494 -53.07951,-4.93494s-51.85843,16.12522 -51.85843,4.93494s23.48704,-20.26792 52.47651,-20.26792s52.47651,9.07766 52.47651,20.26792l-0.01508,0z"/>
   <g stroke="null" id="svg_35">
    <path stroke="null" id="svg_4" d="m14.45093,81.46123c-7.38681,18.28735 -8.21594,66.82804 34.19038,73.08337c33.01452,4.86892 39.52697,-21.37375 57.8131,-37.48246c3.0301,-2.67378 11.9998,-4.50581 16.34143,0.59417c9.87421,11.6359 28.76334,36.72324 51.24035,35.69994c22.68806,-1.0398 36.02955,-15.23396 40.70283,-34.72615c5.48735,-38.2912 -11.54754,-53.3271 -22.91419,-65.02901s-37.77826,-25.35142 -73.76258,-24.65821c-53.42624,1.0233 -69.9938,15.21745 -79.3856,21.81938s-18.82883,17.33007 -24.22572,30.69898l0,-0.00002z"/>
    <path stroke="null" id="svg_5" d="m5.73751,108.26507c0.01508,-0.23107 0.04523,-0.52815 0,-0.13204c0.03015,-0.23107 0.07538,-0.46213 0.10553,-0.69321c0.09045,-0.54466 0.21105,-1.08932 0.33165,-1.63398c0.3015,-1.27088 0.64823,-2.52524 1.01003,-3.7631c0.79898,-2.70679 1.70349,-5.39708 2.75875,-8.00484c0.87436,-2.16213 1.89947,-4.04368 3.18085,-5.95824c2.08037,-3.08641 4.11551,-6.32134 6.84411,-8.78056c2.24619,-2.03009 -0.96481,-5.51261 -3.19593,-3.49902c-2.89442,2.62426 -5.08032,6.10678 -7.29636,9.40775c-1.43214,2.14563 -2.59292,4.20873 -3.5728,6.65145c-1.17586,2.95437 -2.23112,5.97475 -3.1507,9.04464c-0.70853,2.3767 -1.40199,4.83592 -1.56781,7.34465c-0.21105,3.18543 4.31149,3.16893 4.52254,0l0,0l0.03015,0.0165l-0.00001,0z"/>
    <path stroke="null" id="svg_6" d="m1.3205,123.08641c5.72855,2.4097 12.15055,2.67378 18.04492,0.82524c1.17586,-0.36311 1.89947,-1.74951 1.58289,-3.05339s-1.59796,-2.09611 -2.7889,-1.73301c-5.18584,1.61747 -10.61289,1.28738 -15.64798,-0.82524c-1.14571,-0.47864 -2.4874,0.52815 -2.7889,1.73301c-0.34673,1.40291 0.43718,2.55824 1.58289,3.05339l0,0l0.01508,0z"/>
    <path stroke="null" id="svg_7" d="m211.82953,127.42718c5.41197,-0.97378 10.62796,-3.02039 15.42185,-5.92523c1.07033,-0.64369 1.41706,-2.24466 0.81406,-3.38349s-2.02007,-1.53495 -3.0904,-0.89126c-4.46224,2.70679 -9.22598,4.50581 -14.33644,5.43009c-1.20601,0.21456 -1.88439,1.84855 -1.58289,3.05339c0.34673,1.40291 1.56781,1.94757 2.7889,1.73301l0,0l-0.01508,-0.0165z"/>
    <path stroke="null" id="svg_8" d="m206.88489,83.35928c5.8793,6.00776 12.15055,11.83396 16.97459,18.94754c0.72361,1.07282 1.95977,1.61747 3.0904,0.89126c0.96481,-0.61067 1.53766,-2.31068 0.81406,-3.38349c-5.08032,-7.47668 -11.48724,-13.61648 -17.68312,-19.93783c-2.12559,-2.17864 -5.33659,1.32038 -3.19593,3.49902l0,0l0,-0.0165l0,0.00001z"/>
   </g>
   <g stroke="null" id="svg_34">
    <path stroke="null" id="svg_9" class="cls-1" d="m80.79655,179.63194c21.66295,0.16505 43.34098,-0.49515 64.97378,-1.96407c2.89442,-0.19806 2.9095,-5.1495 0,-4.95144c-21.6328,1.46893 -43.29576,2.12912 -64.97378,1.96407c-2.9095,-0.0165 -2.9095,4.93494 0,4.95144l0,0z" fill="#fff"/>
    <path stroke="null" id="svg_10" class="cls-1" d="m82.30407,178.55913c4.58284,-1.58446 9.30135,-2.7233 14.08017,-3.28446s9.84406,-0.46213 14.77362,-0.44563c10.04003,0.04952 20.14037,0.26408 30.07487,2.01359c2.8492,0.49515 4.07028,-4.27475 1.20601,-4.7699c-10.35661,-1.83203 -20.81875,-2.12912 -31.28088,-2.19514c-10.28123,-0.04952 -20.18559,0.49515 -30.0598,3.89514c-2.77382,0.95728 -1.58289,5.72717 1.20601,4.7699l0,0l0,0.0165l0,-0.00001z" fill="#fff"/>
    <path stroke="null" id="svg_11" class="cls-1" d="m145.61959,172.88146c-8.35162,-2.57476 -17.15549,-3.02039 -25.79354,-3.46601s-17.57759,0.47864 -26.11011,3.02039c-2.80397,0.84175 -1.61304,5.61165 1.20601,4.7699c8.17072,-2.42621 16.46204,-3.28446 24.9041,-2.83883s16.61279,0.82524 24.58753,3.28446c2.80397,0.85825 4.00998,-3.91164 1.20601,-4.7699l0,0z" fill="#fff"/>
   </g>
  </g>
 </g>
</svg>