<svg viewBox="0 0 229 229" width="229" height="229" xmlns="http://www.w3.org/2000/svg">
 <defs>
  <radialGradient gradientTransform="matrix(1.4131009578704834,0,0,1.5206507444381714,-590.147705078125,-1082.2730712890625)" gradientUnits="userSpaceOnUse" r="74.49" fy="787.43" fx="420.34" cy="787.43" cx="494.79" id="svg_17">
   <stop stop-color="#fde846" offset="0.44"/>
   <stop stop-color="#fde646" offset="0.79"/>
   <stop stop-color="#fddf46" offset="0.91"/>
   <stop stop-color="#fdd446" offset="1"/>
  </radialGradient>
 </defs>
 <g>
  <title>Layer 1</title>
  <g stroke="null">

   <circle stroke="null" fill="url(#svg_17)" r="105.26189" cy="115.13299" cx="109.04049" class="cls-3"/>
   <g stroke="null" id="svg_15">
    <path stroke="null" d="m15.1682,79.32167c-6.92419,14.55263 -7.7014,53.16195 32.04913,58.13448c30.94691,3.87766 37.05151,-17.00088 54.19242,-29.81996c2.84033,-2.12891 11.24828,-3.58874 15.31801,0.4714c9.25581,9.26076 26.96197,29.2117 48.0313,28.40576c21.26717,-0.82115 33.77311,-12.11959 38.15373,-27.63022c5.14369,-30.45863 -10.82435,-42.42616 -21.47913,-51.73254c-10.28737,-9.00225 -35.41231,-20.16383 -69.14303,-19.61639c-50.0803,0.80594 -65.61028,12.11959 -74.4139,17.36583s-17.64963,13.7923 -22.70853,24.42165z"/>
    <g stroke="null" id="svg_16">
     <path stroke="null" fill="#7aa0e1" d="m87.19395,180.32329c-3.99908,7.99862 0.35328,17.80682 -1.54028,26.65701c-0.50872,2.35701 -1.32831,4.74443 -3.00991,6.34111c-2.33162,2.18974 -5.93502,2.31139 -8.7047,0.82115s-4.70563,-4.36427 -5.80784,-7.4816s-1.44136,-6.46277 -1.68159,-9.77778c-0.35328,-5.20063 -3.17948,-10.84224 -0.36741,-15.08486" class="cls-4"/>
    </g>
    <path stroke="null" d="m44.47591,181.03799c-0.87612,-11.66339 13.82013,-44.32697 66.27443,-42.19806c46.2084,1.8704 63.82977,24.63454 65.4831,40.23642c0.62176,5.93054 -2.98164,12.10438 -9.97649,13.21445c-12.81683,2.03767 -40.76796,-11.46571 -55.08268,-11.14637c-11.77113,0.25851 -42.03975,15.44981 -55.45008,12.65181c-7.50357,-1.15569 -11.03632,-7.52722 -11.23415,-12.75826l-0.01413,0z"/>
    <path stroke="null" d="m47.42929,45.35033c7.43291,-11.78504 19.92472,-19.54036 33.12309,-20.52879c2.71315,-0.19768 2.72728,-4.77484 0,-4.56195c-14.78104,1.11008 -28.45985,9.59531 -36.78302,22.79455c-1.54028,2.43304 2.13378,4.71402 3.65993,2.29618l0,0z"/>
    <path stroke="null" fill="#fff" d="m60.3309,156.84444c24.03685,5.45914 48.83677,6.50839 73.1845,2.99568c6.82528,-0.98842 13.60816,-2.31139 20.32039,-3.99931c2.65663,-0.66909 1.52615,-5.06377 -1.13048,-4.39468c-23.21725,5.80889 -47.29649,7.32954 -70.99419,4.53154c-6.81115,-0.80594 -13.56577,-2.00726 -20.26387,-3.52791c-2.65663,-0.60826 -3.80124,3.78642 -1.13048,4.39468l0,0l0.01413,0z" class="cls-1"/>
    <path stroke="null" fill="#fff" d="m61.77227,156.29701c3.94255,-4.77484 9.55256,-7.54243 15.04953,-9.65613c5.90676,-2.26577 12.09614,-3.67997 18.32792,-4.33385c12.53421,-1.32297 25.25211,0.04562 37.56022,2.76758c3.4197,0.76033 6.82528,1.65751 10.13193,2.87403c1.72398,0.62347 3.4197,1.33817 5.0589,2.17453c1.20114,0.60826 3.50449,1.42941 4.22517,2.69155c1.4131,2.50907 5.08716,0.21289 3.65993,-2.29618c-1.55441,-2.73717 -5.11543,-4.09055 -7.72966,-5.29186c-3.19361,-1.45982 -6.5144,-2.60031 -9.87758,-3.4975c-6.66984,-1.79437 -13.50925,-2.96527 -20.34865,-3.7408c-13.46685,-1.52065 -27.42829,-0.95801 -40.38643,3.58874c-6.75462,2.37222 -13.86252,5.62641 -18.66706,11.46571c-1.80877,2.18974 1.187,5.42872 2.99577,3.22378l0,0l0,0.03041z" class="cls-1"/>
    <path stroke="null" fill="#fff" d="m152.50748,152.17604c0,0.09124 0,0.16727 0,0.2433l0.07066,-0.60826c-0.01413,0.07603 -0.04239,0.15207 -0.07066,0.2281l0.21197,-0.54743c-0.04239,0.07603 -0.07066,0.15207 -0.12718,0.21289l0.32501,-0.4562c-0.07066,0.09124 -0.14131,0.16727 -0.2261,0.2433l0.42393,-0.34975c-0.11305,0.09124 -0.24023,0.16727 -0.36741,0.2281l0.50872,-0.2281c-0.70655,0.28892 -1.51202,0.33454 -2.24683,0.4562l-2.43053,0.41058c-0.49459,0.09124 -1.03156,0.60826 -1.27179,1.04925c-0.26849,0.48661 -0.38154,1.21652 -0.21197,1.76395s0.48045,1.07966 0.97504,1.36859l0.50872,0.2281c0.38154,0.10645 0.74894,0.10645 1.13048,0l3.63167,-0.62347c0.65003,-0.10645 1.32831,-0.25851 1.87942,-0.68429c0.45219,-0.33454 0.8196,-0.71471 1.10222,-1.23173s0.43806,-1.14049 0.39567,-1.70313c-0.04239,-0.60826 -0.21197,-1.1709 -0.62176,-1.61189c-0.36741,-0.39537 -0.97504,-0.6995 -1.49789,-0.66909s-1.11635,0.21289 -1.49789,0.66909s-0.66416,1.01884 -0.62176,1.61189l0,0l0.02826,0z" class="cls-1"/>
    <path stroke="null" d="m4.65473,121.24601c1.17287,-11.60257 6.91006,-22.29274 15.4028,-29.47021c0.90438,-0.76033 0.73481,-2.41783 0,-3.22378c-0.87612,-0.97322 -2.10552,-0.76033 -2.99577,0c-9.41125,7.96821 -15.36041,19.93573 -16.64633,32.7092c-0.12718,1.23173 1.05983,2.26577 2.11965,2.28098c1.24353,0 1.99247,-1.06446 2.11965,-2.28098l0,0l0,-0.01521z"/>
    <path stroke="null" d="m8.04617,137.10639c1.69572,-4.15138 3.40557,-8.50044 6.0622,-12.07397c2.8262,-3.78642 6.8818,-5.93054 10.08954,-9.26076c1.96421,-2.03767 -1.03156,-5.26145 -2.99577,-3.22378c-3.30666,3.40626 -7.41878,5.6112 -10.30151,9.53448s-4.70563,8.25713 -6.5144,12.71264c-0.45219,1.12528 -0.31088,2.44825 0.76307,3.11733c0.90438,0.56264 2.44466,0.31934 2.89686,-0.82115l0,0l0,0.01521z"/>
    <path stroke="null" d="m200.27029,111.6507c2.24683,2.0985 4.49366,4.197 6.50026,6.56921c1.04569,1.23173 1.70985,2.1137 2.50119,3.39105c0.4098,0.65388 0.79134,1.33817 1.14461,2.03767c0.15544,0.31934 0.31088,0.63867 0.45219,0.95801c0.08479,0.18248 0.15544,0.36496 0.2261,0.54743c-0.12718,-0.31934 0.12718,0.33454 0.12718,0.34975c0.42393,1.14049 1.4131,1.94643 2.61424,1.59668c1.01743,-0.30413 1.90769,-1.65751 1.48376,-2.8132c-2.40227,-6.56921 -7.19268,-11.32885 -12.05375,-15.86039c-0.86199,-0.80594 -2.14791,-0.91239 -2.99577,0c-0.76307,0.82115 -0.87612,2.41783 0,3.22378l0,0z"/>
    <path stroke="null" d="m198.43326,89.34275c6.09047,6.35632 11.13524,13.73148 14.993,21.86696c1.24353,2.61552 4.90346,0.30413 3.65993,-2.29618c-4.01321,-8.45482 -9.32647,-16.17972 -15.65716,-22.79455c-1.96421,-2.05288 -4.95998,1.1709 -2.99577,3.22378l0,0z"/>
    <path stroke="null" d="m172.81374,43.05415c-8.30903,-13.19925 -22.00198,-21.66927 -36.78302,-22.79455c-2.72728,-0.21289 -2.71315,4.36427 0,4.56195c13.19836,1.00363 25.69018,8.74374 33.12309,20.52879c1.52615,2.41783 5.20021,0.13686 3.65993,-2.29618l0,0z"/>
   </g>
   <g stroke="null" id="svg_14">
    <path stroke="#fff" stroke-miterlimit="10" fill="#fff" d="m60.9668,154.42661s20.99868,-18.99293 41.5593,-15.6475s43.74961,5.86971 49.71289,11.08554c5.96329,5.21583 -4.29583,5.15501 -4.29583,5.15501c0,0 -41.3332,7.96821 -56.01532,4.77484s-30.96104,-5.3679 -30.96104,-5.3679z" class="cls-2"/>
   </g>
   <g stroke="null" id="svg_13">
    <path stroke="null" fill="#7aa0e1" d="m179.15856,123.90715c6.37309,-2.00726 12.88748,-3.45188 19.48666,-4.24262l-1.49789,-3.89287c-6.17525,6.554 -11.89831,13.67065 -16.91482,21.28911c-0.65003,0.98842 -1.13048,2.0985 -0.77721,3.33023c0.31088,1.07966 1.15874,1.8704 2.16204,2.17453c1.87942,0.57785 4.09799,-0.2433 5.94916,-0.56264l14.07449,-2.47866c1.13048,-0.19768 1.76638,-1.70313 1.48376,-2.8132c-0.32501,-1.29255 -1.46962,-1.79437 -2.61424,-1.59668l-9.67974,1.70313l-4.83281,0.85156c-0.73481,0.12165 -1.46962,0.25851 -2.20444,0.38016c0.09892,-0.01521 -0.8196,0.10645 -0.83373,0.12165l-0.26849,0c0.35328,-0.10645 0.62176,0.13686 0.80547,0.74512l0,1.21652c0.11305,-0.82115 1.14461,-1.88561 1.61094,-2.5699c0.62176,-0.91239 1.25766,-1.82478 1.90769,-2.72196c1.34245,-1.8704 2.72728,-3.69518 4.15452,-5.48955c2.84033,-3.60394 5.85024,-7.05582 8.97319,-10.37084c1.20114,-1.27735 0.39567,-4.12096 -1.49789,-3.89287c-6.98072,0.83636 -13.87665,2.28098 -20.61714,4.40989c-2.61424,0.82115 -1.49789,5.23104 1.13048,4.39468l0,0l0,0.01521z" class="cls-4"/>
    <path stroke="null" fill="#7aa0e1" d="m199.97354,70.72999c7.56009,-0.79074 15.13431,-1.30776 22.70853,-1.55106l-3.06643,-2.50907l0.28262,-1.50544l-0.26849,0.30413c-0.25436,0.16727 -0.49459,0.51702 -0.70655,0.74512c-0.52285,0.56264 -1.05983,1.11008 -1.58267,1.67272c-0.98917,1.06446 -1.96421,2.12891 -2.93925,3.22378c-1.93595,2.15932 -3.84363,4.36427 -5.70893,6.61483c-3.80124,4.57716 -7.40465,9.32159 -10.88088,14.17246c-0.74894,1.04925 -0.45219,2.85882 0.25436,3.80163c0.84786,1.15569 2.02073,1.45982 3.34905,1.23173l25.85975,-4.54675c1.69572,-0.30413 2.6425,-2.5699 2.21857,-4.2122c-0.49459,-1.93123 -2.20444,-2.69155 -3.91429,-2.38742l-25.85975,4.54675l3.58928,5.03335c3.6458,-5.09418 7.5177,-10.00588 11.54503,-14.76552c1.99247,-2.35701 4.04147,-4.65319 6.11873,-6.91896c2.19031,-2.37222 5.77958,-4.98773 4.77628,-8.81977c-0.36741,-1.41421 -1.66746,-2.55469 -3.06643,-2.50907c-7.58835,0.2433 -15.16257,0.76033 -22.70853,1.55106c-1.70985,0.18248 -3.17948,1.44462 -3.17948,3.42146c0,1.71834 1.45549,3.60394 3.17948,3.42146l0,0l0,-0.01521z" class="cls-4"/>
    <path stroke="null" fill="#7aa0e1" d="m180.51514,11.72874c6.20351,-0.9428 12.46355,-1.52065 18.72359,-1.80957c1.5968,-0.07603 3.20774,-0.12165 4.81867,-0.15207c0.84786,-0.01521 1.92182,0.16727 2.75555,-0.03041c1.66746,0.18248 1.13048,-0.85156 -1.62507,-3.10213l-0.14131,0.48661c-0.29675,0.30413 -1.187,1.83999 -1.70985,2.5699c-0.91852,1.30776 -1.95008,2.53949 -2.98164,3.75601c-7.7014,9.03267 -17.25396,17.03129 -20.08016,29.53104c-0.60763,2.66114 1.24353,6.03698 4.08386,5.77847c12.43529,-1.15569 24.88471,-2.03767 37.36239,-2.64593c2.28922,-0.10645 4.2393,-2.02247 4.2393,-4.56195c0,-2.38742 -1.93595,-4.6684 -4.2393,-4.56195c-12.46355,0.60826 -24.9271,1.49024 -37.36239,2.64593l4.08386,5.77847c2.31749,-10.20357 10.42869,-17.01608 16.85829,-24.28479c1.86529,-2.1137 3.61754,-4.33385 5.25674,-6.67566s3.32079,-5.03335 2.96751,-8.16589c-0.42393,-3.78642 -3.4197,-5.58079 -6.71223,-5.67203c-2.85446,-0.07603 -5.73719,0.09124 -8.59165,0.2281c-6.68397,0.33454 -13.32554,1.07966 -19.95299,2.08329c-2.27509,0.34975 -3.51862,3.45188 -2.96751,5.6112c0.66416,2.63073 2.93925,3.52791 5.21434,3.19337l0,0z" class="cls-4"/>
   </g>
  </g>
 </g>
</svg>