<svg xmlns="http://www.w3.org/2000/svg" viewBox="0 0 229 229" preserveAspectRatio="xMidYMid meet">
 <defs>
  <radialGradient id="svg_38" cx="1067.51" cy="370.08" fx="1155.73" fy="297.7" r="114.1" gradientUnits="userSpaceOnUse" gradientTransform="matrix(1,0,0,1,-953.0099868774414,-255.58001708984375)">
   <stop offset="0.44" stop-color="#fde846"/>
   <stop offset="0.79" stop-color="#fde646"/>
   <stop offset="0.91" stop-color="#fddf46"/>
   <stop offset="1" stop-color="#fdd446"/>
  </radialGradient>
  <linearGradient id="svg_28" x1="1070.76" y1="411.62" x2="1072.48" y2="442.53" gradientUnits="userSpaceOnUse" gradientTransform="matrix(1,0,0,1,-953.0099868774414,-255.58001708984375)">
   <stop offset="0" stop-color="#d04a46"/>
   <stop offset="0.6" stop-color="#fd5b46"/>
   <stop offset="0.8" stop-color="#fa5a46"/>
  </linearGradient>
 </defs>
 <g>
  <title>Layer 1</title>
  <g>

   <g>
    <title>Layer 1</title>
    <g>
     <g id="svg_37">
      <circle class="cls-5" cx="114.49999" cy="114.5" r="114.1" fill="url(#svg_38)"/>
     </g>
     <g id="svg_34">
      <circle class="cls-4" cx="74.29999" cy="95.75" r="31.73" fill="#fcf7fb"/>
      <g id="svg_36">
       <circle class="cls-7" cx="83.52999" cy="95.68" r="16.97" fill="#0c010a"/>
      </g>
      <circle class="cls-1" cx="95.05999" cy="91.84" r="6.36" fill="#fff"/>
      <g id="svg_35">
       <path class="cls-6" d="m38.87999,117.89s30.26,-26.57 67.89,-0.74s-30.99,27.3 -30.99,27.3l-36.9,-26.57l0,0.01z" fill="#fde846"/>
      </g>
     </g>
     <g id="svg_33">
      <path class="cls-3" d="m95.67999,42.47s-23.79,-15.24 -43.85,12.24" stroke-miterlimit="10" fill="none" stroke="#0c010a" stroke-width="4px"/>
      <path class="cls-3" d="m136.82999,43.47s23.79,-15.24 43.85,12.24" stroke-miterlimit="10" fill="none" stroke="#0c010a" stroke-width="4px"/>
     </g>
     <g id="svg_32">
      <circle class="cls-4" cx="156.29999" cy="95.75" r="31.73" fill="#fcf7fb"/>
      <circle class="cls-7" cx="148.52999" cy="95.68" r="16.97" fill="#0c010a"/>
      <path class="cls-6" d="m123.87999,117.23s30.26,-26.57 67.89,-0.74c37.64,25.83 -30.99,27.3 -30.99,27.3l-36.9,-26.57l0,0.01z" fill="#fde846"/>
      <circle class="cls-1" cx="161.05999" cy="90.84" r="6.36" fill="#fff"/>
     </g>
     <g id="svg_31">
      <path class="cls-7" d="m53.27999,131.72c21.02,-2.24 70.05,-2.71 115.72,-8.51c24.11,-3.07 4.64,49.54 -13.16,54.96c-21.48,6.54 -68.89,9.68 -89.79,-1.55c-9.75,-5.24 -24.96,-43.6 -12.77,-44.9z" fill="#0c010a"/>
     </g>
     <g id="svg_30">
      <g>
       <path class="cls-4" d="m50.78999,144.05c24.11,3.07 30.59,2.88 46.49,2.71c27.59,-0.3 54.32,-3.91 80.13,-14.44" fill="#fcf7fb"/>
       <path class="cls-4" d="m50.78999,145.55c7.87,1 15.76,1.94 23.68,2.43c5.67,0.35 11.34,0.39 17.02,0.34c18.4,-0.16 36.72,-1.21 54.77,-4.98c10.78,-2.25 21.35,-5.43 31.55,-9.57c1.77,-0.72 0.99,-3.62 -0.8,-2.89c-17.95,7.29 -36.97,11.45 -56.23,13.22c-9.06,0.83 -18.15,1.1 -27.25,1.2c-5.66,0.06 -11.32,0.08 -16.97,-0.21c-8.62,-0.44 -17.21,-1.46 -25.78,-2.54c-1.91,-0.24 -1.89,2.76 0,3l0,0l0.01,0z" fill="#fcf7fb"/>
      </g>
      <g>
       <path class="cls-4" d="m50.78999,144.05c-0.81,-2.55 -1,-4.85 -0.57,-7.48c0.29,-1.81 1.25,-3.42 3,-3.96c1.22,-0.38 3.35,-0.9 4.87,-0.79" fill="#fcf7fb"/>
       <path class="cls-4" d="m52.23999,143.65c-0.45,-1.44 -0.73,-2.88 -0.74,-4.39c0,-0.76 0.04,-1.54 0.17,-2.29c0.09,-0.55 0.26,-1.15 0.46,-1.53c0.52,-0.99 1.08,-1.28 2.18,-1.58c1.25,-0.34 2.5,-0.61 3.79,-0.54c0.81,0.05 1.5,-0.72 1.5,-1.5c0,-0.85 -0.69,-1.45 -1.5,-1.5c-1.61,-0.09 -3.29,0.27 -4.83,0.71s-2.84,1.31 -3.65,2.75c-0.86,1.51 -1.07,3.33 -1.11,5.04c-0.05,1.91 0.27,3.81 0.84,5.63c0.57,1.84 3.47,1.05 2.89,-0.8l0,0z" fill="#fcf7fb"/>
      </g>
      <g>
       <path class="cls-4" d="m177.40999,132.32c1.07,-1 1.54,-2.53 1.18,-3.95c-0.21,-0.81 -0.66,-1.54 -1.19,-2.18c-1.95,-2.36 -3.75,-3.21 -9.02,-2.49" fill="#fcf7fb"/>
       <path class="cls-4" d="m178.46999,133.38c1.14,-1.11 1.84,-2.72 1.73,-4.32s-0.96,-3.06 -2.05,-4.3c-1.41,-1.6 -3.16,-2.48 -5.27,-2.74c-1.49,-0.18 -3.01,-0.03 -4.5,0.17c-0.8,0.11 -1.5,0.61 -1.5,1.5c0,0.73 0.69,1.61 1.5,1.5c1.48,-0.2 2.95,-0.32 4.44,-0.18c-0.42,-0.04 0.07,0.01 0.16,0.03c0.1,0.02 0.21,0.04 0.31,0.07c0.26,0.06 0.51,0.16 0.77,0.23c0.3,0.08 -0.26,-0.14 0,0c0.11,0.06 0.23,0.11 0.34,0.17c0.2,0.11 0.4,0.24 0.59,0.37c0.31,0.2 -0.19,-0.18 0.03,0.02c0.09,0.08 0.19,0.16 0.29,0.25c0.17,0.15 0.33,0.32 0.49,0.48c0.48,0.51 0.75,0.84 1.07,1.43c0.62,1.14 0.41,2.32 -0.51,3.21c-0.58,0.56 -0.57,1.55 0,2.12s1.54,0.57 2.12,0l0,0l-0.01,-0.01z" fill="#fcf7fb"/>
      </g>
      <g>
       <path class="cls-4" d="m58.09999,131.82c10.54,-0.9 20.85,-1.73 31.4,-2.63c27.68,-2.37 55.38,-4.74 83.16,-5.54" fill="#fcf7fb"/>
       <path class="cls-4" d="m58.09999,133.32c29.74,-2.54 59.48,-5.33 89.28,-7.05c8.42,-0.49 16.84,-0.87 25.27,-1.12c1.93,-0.06 1.93,-3.06 0,-3c-29.92,0.87 -59.74,3.58 -89.56,6.08c-8.33,0.7 -16.67,1.38 -25,2.09c-1.91,0.16 -1.93,3.16 0,3l0,0l0.01,0z" fill="#fcf7fb"/>
      </g>
     </g>
     <g id="svg_29">
      <path class="cls-2" d="m53.19999,133.61l119.37,-10.48s9.55,3.97 5.32,8.95c-4.22,4.98 -34.74,11.79 -52.48,12.72s-68.66,-1.74 -73.75,-0.9c-4.53,0.74 1.54,-10.3 1.54,-10.3l0,0.01z" stroke="#fcf7fb" stroke-miterlimit="10" fill="#fcf7fb"/>
     </g>
     <g id="svg_27">
      <path class="cls-8" d="m58.99999,172.93s18.36,-17.79 42.71,-15.9s20.38,-0.35 35.56,-1.17c10.08,-0.55 33.61,6.13 41.49,20.6c7.88,14.47 -115.65,14.24 -118.35,7.41c-2.71,-6.82 -1.41,-10.94 -1.41,-10.94z" fill="url(#svg_28)"/>
      <path class="cls-6" d="m58.25999,167.66c16.66,25.86 87.91,24.28 112.45,-3.64c41.33,-47.01 7.52,17.03 7.52,17.03c0,0 -71.01,28.63 -120.43,3.22c-2.55,-1.31 -3.31,-22.45 0.45,-16.61l0.01,0z" fill="#fde846"/>
     </g>
    </g>
   </g>
  </g>
 </g>
</svg>