<svg xmlns="http://www.w3.org/2000/svg" viewBox="0 0 229 229" preserveAspectRatio="xMidYMid meet">
 <defs>
  <radialGradient id="svg_43" cx="1551.31" cy="372.05" fx="1551.31" fy="257.67" r="114.41" gradientUnits="userSpaceOnUse" gradientTransform="matrix(1,0,0,1,-1436.8100357055664,-257.54998779296875)">
   <stop offset="0" stop-color="#ff872e"/>
   <stop offset="0.63" stop-color="#ff852e"/>
   <stop offset="0.86" stop-color="#ff7e2e"/>
   <stop offset="1" stop-color="#ff752e"/>
  </radialGradient>
 </defs>
 <g>
  <title>Layer 1</title>
  <g>

   <g>
    <title>Layer 1</title>
    <g>
     <g id="svg_42">
      <circle class="cls-5" cx="114.5" cy="114.5" r="114.41" fill="url(#svg_43)"/>
     </g>
     <circle class="cls-6" cx="73.5" cy="95.78" r="31.73" fill="#fcf7fb"/>
     <circle class="cls-7" cx="82.73" cy="95.71" r="16.97" fill="#0c010a"/>
     <circle class="cls-3" cx="94.26" cy="91.87" r="6.36" fill="#fff"/>
     <circle class="cls-6" cx="155.5" cy="95.78" r="31.73" fill="#fcf7fb"/>
     <circle class="cls-7" cx="146.73" cy="95.71" r="16.97" fill="#0c010a"/>
     <circle class="cls-3" cx="158.26" cy="91.87" r="6.36" fill="#fff"/>
     <g id="svg_41">
      <path class="cls-4" d="m125.09,58.86s1.42,34.46 69.45,34.96c-16.67,-17.86 -29.49,-54.73 -29.49,-54.73l-39.97,19.77l0.01,0z" fill="#ff872e"/>
      <path class="cls-4" d="m101.15,65.76s-6.02,33.96 -73.51,25.36c18.91,-15.47 40.26,-36.53 40.26,-36.53l33.25,11.17z" fill="#ff872e"/>
      <path class="cls-4" d="m126.82,122.95c10.56,-6.73 26.22,-12.9 58.03,-3.87c31.81,9.03 -24.07,17.19 -24.07,17.19c0,0 -31.05,5.72 -33.96,-13.33l0,0.01z" fill="#ff872e"/>
      <path class="cls-4" d="m80.39,142.46l-32.85,-15.86s27.12,-10.88 58.16,0.53" fill="#ff872e"/>
     </g>
     <g id="svg_40">
      <path d="m97.92,52.94c0.64,8.56 -7.43,13.84 -14.54,16.28c-4.35,1.49 -8.86,2.59 -13.31,3.75s-9.28,2.36 -13.96,3.41c-5.31,1.19 -10.64,2.24 -16.01,3.11c-1.9,0.31 -1.09,3.2 0.8,2.89c10.1,-1.63 20.07,-3.94 29.97,-6.52c4.66,-1.22 9.39,-2.35 13.92,-3.97c4.09,-1.46 8.11,-3.45 11.16,-6.61s5.31,-7.7 4.97,-12.34c-0.14,-1.91 -3.14,-1.93 -3,0l0,0z"/>
      <path d="m129.32,53.81c-0.83,3.69 0.24,7.44 2.48,10.45s5.7,5.21 9.26,6.73c4.01,1.71 8.22,3 12.38,4.31c4.37,1.37 8.77,2.63 13.21,3.78c5.05,1.32 10.14,2.49 15.26,3.53c1.88,0.38 2.69,-2.51 0.8,-2.89c-8.27,-1.68 -16.46,-3.72 -24.55,-6.12c-4.04,-1.2 -8.06,-2.48 -12.03,-3.87c-3.38,-1.18 -6.87,-2.52 -9.65,-4.85c-2.94,-2.47 -5.14,-6.34 -4.26,-10.27c0.42,-1.88 -2.47,-2.68 -2.89,-0.8l0,0l-0.01,0z"/>
     </g>
     <g id="svg_39">
      <path class="cls-1" d="m56.95,162.37s7.9,-21.64 16.69,-18.2c8.79,3.44 11.56,17.78 19.93,16.92c8.37,-0.86 11.05,-26.22 25.28,-24.93s12.56,28.37 23.86,27.51s9.63,-18.63 19.68,-18.21c8.37,0.35 12.93,13.47 13.76,18.63" stroke-width="4px" fill="none" stroke="#000" stroke-miterlimit="10"/>
      <path class="cls-2" d="m45.01,159.37s-3.51,23.21 17.42,9.46" fill="none" stroke="#000" stroke-miterlimit="10" stroke-width="2px"/>
      <path class="cls-2" d="m185.02,159.37s3.51,23.21 -17.42,9.46" fill="none" stroke="#000" stroke-miterlimit="10" stroke-width="2px"/>
     </g>
    </g>
   </g>
  </g>
 </g>
</svg>