<svg xmlns="http://www.w3.org/2000/svg" viewBox="0 0 229 229" preserveAspectRatio="xMidYMid meet">
 <defs>
  <radialGradient id="svg_48" cx="1310.31" cy="372.05" fx="1388.13" fy="455.92" r="114.41" gradientUnits="userSpaceOnUse" gradientTransform="matrix(1,0,0,1,-1195.809913635254,-257.5500183105469)">
   <stop offset="0.7" stop-color="#ea2718"/>
   <stop offset="0.85" stop-color="#e82718"/>
   <stop offset="0.9" stop-color="#e12718"/>
   <stop offset="0.93" stop-color="#d52718"/>
   <stop offset="0.96" stop-color="#c42718"/>
   <stop offset="0.99" stop-color="#ae2718"/>
   <stop offset="1" stop-color="#a02718"/>
  </radialGradient>
 </defs>
 <g>
  <title>Layer 1</title>
  <g>

   <g>
    <title>Layer 1</title>
    <g>
     <g id="svg_47">
      <circle class="cls-3" cx="114.5" cy="114.49999" r="114.41" fill="url(#svg_48)"/>
     </g>
     <circle class="cls-4" cx="73.5" cy="95.77999" r="31.73" fill="#fcf7fb"/>
     <circle class="cls-6" cx="82.73" cy="95.70999" r="16.97" fill="#0c010a"/>
     <circle class="cls-2" cx="94.26" cy="91.86999" r="6.36" fill="#fff"/>
     <circle class="cls-4" cx="155.5" cy="95.77999" r="31.73" fill="#fcf7fb"/>
     <circle class="cls-6" cx="147.73" cy="95.70999" r="16.97" fill="#0c010a"/>
     <circle class="cls-2" cx="160.26" cy="90.86999" r="6.36" fill="#fff"/>
     <path class="cls-5" d="m30.08,118.25999s30.26,-26.57 67.89,-0.74c37.64,25.83 -30.99,27.3 -30.99,27.3l-36.9,-26.57l0,0.01z" fill="#ea2718"/>
     <g id="svg_46">
      <path class="cls-2" d="m57.77,136.43999c76.98,18.37 89.03,-2.43 116.06,-4.3c4.58,8.01 18.37,34.39 18.37,34.39c0,0 -51.19,-5.86 -82.06,-5.08s-69.95,11.33 -69.95,11.33c0,0 10.59,-24.85 17.58,-36.34z" fill="#fff"/>
     </g>
     <g id="svg_45">
      <path class="cls-1" d="m120.67,68.35999l6.19,9.9s25.39,-16.89 41.44,-21.56" fill="none" stroke="#000" stroke-miterlimit="10" stroke-width="4px"/>
      <path class="cls-1" d="m107.95,67.81999l-6.65,9.74s-25.92,-17.5 -42.44,-22.56" fill="none" stroke="#000" stroke-miterlimit="10" stroke-width="4px"/>
     </g>
     <g id="svg_44">
      <path d="m36.19,161.80999c-2.46,3.07 -4.28,6.58 -5.3,10.39c-0.9,3.36 -1.49,7.27 1.7,9.61c3.2,2.35 7.31,1.12 10.78,0.17c4.38,-1.2 8.68,-2.66 12.89,-4.35c1.33,-0.53 0.75,-2.71 -0.6,-2.17c-3.41,1.37 -6.88,2.6 -10.41,3.65c-1.7,0.51 -3.41,0.99 -5.14,1.4s-3.51,0.72 -5.15,0.07c-3.53,-1.38 -2.59,-5.31 -1.78,-8.18c0.93,-3.26 2.49,-6.34 4.61,-8.99c0.9,-1.12 -0.69,-2.72 -1.59,-1.59l0,0l-0.01,-0.01z"/>
      <path d="m195.33,160.66999c1.73,2.14 3.17,4.53 4.25,7.07c0.5,1.17 1.36,2.83 0.64,4.06c-0.71,1.22 -2.23,1.54 -3.53,1.57c-2.9,0.05 -5.95,-0.63 -8.77,-1.27c-2.99,-0.68 -5.91,-1.59 -8.77,-2.7c-1.35,-0.52 -1.94,1.65 -0.6,2.17c3.45,1.34 7.01,2.38 10.65,3.1c1.77,0.35 3.57,0.62 5.36,0.82c1.7,0.19 3.47,0.26 5.08,-0.42c1.26,-0.54 2.37,-1.51 2.85,-2.82c0.57,-1.57 0.03,-3.17 -0.56,-4.65c-1.24,-3.09 -2.93,-5.92 -5.01,-8.51c-0.91,-1.13 -2.49,0.47 -1.59,1.59l0,0l0,-0.01z"/>
      <path d="m181.89,148.14999c-14.25,0.83 -28.51,1.59 -42.77,2.3c-1.92,0.09 -1.93,3.09 0,3c14.26,-0.7 28.51,-1.47 42.77,-2.3c1.92,-0.11 1.93,-3.11 0,-3l0,0z"/>
      <path d="m49.69,155.03999c9.87,-0.5 19.75,-0.66 29.63,-0.49c1.93,0.03 1.93,-2.97 0,-3c-9.88,-0.17 -19.76,0 -29.63,0.49c-1.92,0.1 -1.93,3.1 0,3l0,0z"/>
     </g>
    </g>
   </g>
  </g>
 </g>
</svg>