<svg xmlns="http://www.w3.org/2000/svg" xmlns:xlink="http://www.w3.org/1999/xlink" 
    viewBox="0 0 229 229" width="229" height="229">
 <defs>
  <radialGradient id="svg_45" cx="1551.31" cy="633.05" fx="1634.01" fy="706.58" r="114.41" gradientUnits="userSpaceOnUse" gradientTransform="matrix(1,0,0,1,-1436.900032043457,-518.6400375366211)">
   <stop offset="0.44" stop-color="#d17dd3"/>
   <stop offset="0.71" stop-color="#d17bd3"/>
   <stop offset="0.81" stop-color="#d174d4"/>
   <stop offset="0.88" stop-color="#d168d6"/>
   <stop offset="0.94" stop-color="#d157d9"/>
   <stop offset="0.99" stop-color="#d141dd"/>
   <stop offset="1" stop-color="#d13bdf"/>
  </radialGradient>
  <linearGradient id="svg_42" x1="0.01283" y1="0.49935" x2="0.98711" y2="0.49935">
   <stop offset="0" stop-color="#d04a46"/>
   <stop offset="0.6" stop-color="#fd5b46"/>
   <stop offset="0.8" stop-color="#fa5a46"/>
  </linearGradient>
  <linearGradient id="svg_41" x1="1498.02" y1="682.7" x2="1603.2" y2="682.7" xlink:href="#svg_42" xlink:href="#svg_42"/>
  <linearGradient id="svg_39" x1="1498.11" y1="682" x2="1602.68" y2="682" xlink:href="#svg_42" href="#svg_42"/>
 </defs>
 <g>
  <title>Layer 1</title>
  <g id="svg_1">
   <g id="svg_44">
    <circle id="svg_2" class="cls-6" cx="114.41" cy="114.41" r="114.41" fill="url(#svg_45)"/>
   </g>
   <circle id="svg_3" class="cls-7" cx="73.41" cy="94.69" r="31.73" fill="#fcf7fb"/>
   <ellipse id="svg_4" class="cls-8" cx="79.02" cy="88.04" rx="11.35" ry="10.39" fill="#0c010a"/>
   <ellipse id="svg_5" class="cls-5" cx="86.73" cy="85.69" rx="4.25" ry="3.89" fill="#fff"/>
   <circle id="svg_6" class="cls-7" cx="155.41" cy="94.69" r="31.73" fill="#fcf7fb"/>
   <ellipse id="svg_7" class="cls-8" cx="151.7" cy="86.73" rx="9.91" ry="9.08" fill="#0c010a"/>
   <ellipse id="svg_8" class="cls-5" cx="159.02" cy="84.14" rx="3.71" ry="3.4" fill="#fff"/>
   <g id="svg_43">
    <path id="svg_9" class="cls-2" d="m96.61,38.85s-0.45,6.84 -1.98,8.33c-6.9,6.72 -37.7,7.94 -37.7,7.94" fill="none" stroke-width="4px" stroke="#000" stroke-miterlimit="10"/>
    <path id="svg_10" class="cls-3" d="m48.4,132.9c17.24,0 44.38,10.27 65.28,6.97s55.38,-10.64 64.18,-7.34c12.75,7.25 16.99,25.55 11.49,45.72c-13.61,-3.64 -39.73,-11.61 -79.71,-11.61c-19.13,0 -46.58,5.13 -72.25,14.3c-8.7,-8.73 -2.76,-42.83 11,-48.05l0.01,0.01z" stroke="#000" stroke-miterlimit="10"/>
    <path id="svg_11" class="cls-2" d="m134.93,38.85s0.45,6.84 1.98,8.33c6.9,6.72 37.7,7.94 37.7,7.94" fill="none" stroke-width="4px" stroke="#000" stroke-miterlimit="10"/>
   </g>
   <g id="svg_40">
    <path id="svg_12" class="cls-10" d="m62.08,174.19c26.84,-5.33 54.52,-6.86 81.75,-3.91c7.13,0.77 14.22,1.88 21.25,3.31c1.88,0.38 2.69,-2.51 0.8,-2.89c-26.5,-5.4 -53.88,-6.16 -80.72,-3.12c-8.01,0.91 -15.97,2.15 -23.87,3.72c-1.89,0.38 -1.09,3.27 0.8,2.89l0,0l-0.01,0z" fill="url(#svg_42)"/>
    <path id="svg_13" class="cls-1" d="m167.25,172.06c0.46,-3.76 -3.12,-7.39 -5.74,-9.65c-2.9,-2.51 -6.24,-4.4 -9.8,-5.8c-7.91,-3.12 -16.7,-3.43 -24.99,-1.83c-2.16,0.42 -4.3,0.98 -6.39,1.67c-0.96,0.32 -1.92,0.67 -2.86,1.04s-1.91,0.93 -2.91,1.19c-1.05,0.27 -1.68,-0.56 -2.49,-1.11s-1.6,-0.96 -2.45,-1.34c-1.79,-0.79 -3.66,-1.32 -5.59,-1.64c-4.12,-0.69 -8.31,-0.64 -12.46,-0.39c-4.44,0.28 -8.91,0.83 -13.2,2.04c-7.79,2.18 -16.85,7.4 -18.2,16.18c-0.29,1.89 2.6,2.7 2.89,0.8c1.09,-7.1 8.09,-11.5 14.4,-13.56c3.97,-1.3 8.12,-1.97 12.27,-2.31c3.94,-0.33 7.95,-0.49 11.89,-0.07c3.56,0.38 6.95,1.38 9.82,3.56c1.69,1.28 3.35,1.04 5.2,0.24s3.64,-1.47 5.52,-2.05c7.71,-2.37 16.12,-2.99 24,-1.02c3.92,0.98 7.69,2.57 11.03,4.86c1.56,1.07 3,2.31 4.27,3.7c1.35,1.48 3.05,3.39 2.78,5.52c-0.24,1.91 2.77,1.89 3,0l0,0l0.01,-0.03z" fill="url(#svg_41)"/>
   </g>
   <g id="svg_38">
    <path id="svg_14" class="cls-9" d="m61.21,172.9c3.51,-8.69 24.66,-27.51 51.96,-12.73c19.72,-6.69 20.35,-7.6 26.25,-4.96c30.78,5.18 26.11,17.59 26.11,17.59c0,0 -29.49,-7.47 -51.21,-5.2c-21.85,0.11 -35.45,2.05 -53.11,5.31l0,-0.01z" fill="url(#svg_39)"/>
   </g>
   <g id="svg_37">
    <path id="svg_15" class="cls-4" d="m40.96,140.73s14.25,6.52 71.23,7.38c56.98,0.86 67.53,-13.61 67.53,-13.61c0,0 1.3,-1.82 -14.03,-4.22c-11.2,-0.29 -34.8,7.95 -44.15,7.19c-9.57,1.25 -32.73,1.72 -53.07,-2.3c-20.34,-4.02 -23.6,-0.86 -23.6,-0.86l-3.91,6.42z" stroke-miterlimit="10" fill="#fff" stroke="#fff"/>
   </g>
   <g id="svg_36">
    <path id="svg_16" class="cls-5" d="m40.37,142.15c8.68,3.33 18.12,4.03 27.29,4.9c9.58,0.9 19.18,1.59 28.8,1.91c19.11,0.65 38.33,-0.13 57.18,-3.49c9.25,-1.65 19.51,-3.38 26.91,-9.62c1.48,-1.25 -0.65,-3.36 -2.12,-2.12c-6.3,5.32 -15.15,6.87 -23.01,8.38c-9.17,1.76 -18.45,2.86 -27.77,3.47c-18.71,1.22 -37.5,0.46 -56.16,-1.18c-10.15,-0.89 -20.72,-1.46 -30.32,-5.14c-1.8,-0.69 -2.58,2.21 -0.8,2.89l0,0z" fill="#fff"/>
    <g id="svg_17">
     <path id="svg_18" class="cls-5" d="m180.26,134.23c-2.93,-1.88 -6.61,-2.63 -10.22,-2.97c-17.31,-1.63 -34.15,5.08 -51.47,6.56c-8.09,0.69 -16.24,0.24 -24.35,-0.21c-9.78,-0.54 -19.61,-1.1 -29.15,-3.04c-4.72,-0.96 -9.51,-2.27 -14.31,-1.73c-4.52,0.52 -9.74,3.8 -10.38,8.07" fill="#fff"/>
     <path id="svg_19" class="cls-5" d="m181.02,132.94c-3.96,-2.45 -8.72,-3.1 -13.29,-3.34c-4.9,-0.26 -9.8,0.12 -14.66,0.79c-9.7,1.33 -19.19,3.88 -28.88,5.29c-10.27,1.5 -20.61,0.97 -30.93,0.39s-20.36,-1.34 -30.4,-3.49c-5.01,-1.07 -10.54,-2.24 -15.53,-0.45c-3.77,1.35 -7.66,4.22 -8.4,8.4c-0.33,1.89 2.56,2.7 2.89,0.8c0.61,-3.44 4,-5.66 7.15,-6.58c4.48,-1.31 9.38,-0.07 13.81,0.88c9.57,2.05 19.29,2.81 29.04,3.36s19.57,1.2 29.31,0.09c9.42,-1.07 18.61,-3.44 27.94,-5.05c5.18,-0.89 10.41,-1.53 15.67,-1.51c4.97,0.02 10.44,0.33 14.78,3.01c1.65,1.02 3.15,-1.57 1.51,-2.59l0,0l-0.01,0z" fill="#fff"/>
    </g>
    <path id="svg_20" class="cls-5" d="m40.05,142.79c19.98,5.81 40.94,2.81 61.38,2.5c1.93,-0.03 1.93,-3.03 0,-3c-20.15,0.3 -40.87,3.34 -60.58,-2.39c-1.86,-0.54 -2.65,2.35 -0.8,2.89l0,0z" fill="#fff"/>
    <path id="svg_21" class="cls-5" d="m144.64,147.25c13.39,-1.19 26.64,-3.71 39.51,-7.58c1.84,-0.56 1.06,-3.45 -0.8,-2.89c-12.61,3.8 -25.59,6.31 -38.71,7.48c-1.91,0.17 -1.93,3.17 0,3l0,0l0,-0.01z" fill="#fff"/>
    <path id="svg_22" class="cls-5" d="m174.25,141.02c2.3,-0.65 4.6,-1.32 6.86,-2.07c0.83,-0.28 1.46,-0.8 1.5,-1.74c0.02,-0.6 -0.32,-1.25 -0.55,-1.79c-0.44,-1.01 -1.1,-1.87 -2.04,-2.45c-0.67,-0.41 -1.68,-0.17 -2.05,0.54c-0.4,0.76 -0.16,1.58 0.54,2.05c0.74,0.5 1.47,1 2.2,1.5c0.14,0.1 0.15,0.11 0.03,0.02c0.07,0.06 0.14,0.12 0.21,0.18c0.13,0.12 0.26,0.25 0.38,0.38c-0.1,-0.13 -0.11,-0.13 -0.01,0c0.08,0.15 0.08,0.14 0,-0.03c0.04,0.17 0.04,0.15 0,-0.06c0,0.17 0,0.15 0,-0.05c-0.18,0.76 0.24,1.66 1.05,1.85s1.65,-0.23 1.85,-1.05c0.63,-2.66 -2.4,-4.11 -4.2,-5.33l-1.51,2.59c0.08,0.05 0.32,0.25 0.13,0.08c0.1,0.09 0.19,0.18 0.28,0.27c0.27,0.28 -0.12,-0.22 0.08,0.11c0.07,0.11 0.14,0.22 0.2,0.33s0.12,0.23 0.18,0.35c0.14,0.29 -0.07,-0.21 0.05,0.12c0.04,0.1 0.08,0.2 0.11,0.3c0.02,0.06 0.04,0.12 0.07,0.18c0.05,0.17 0.06,0.16 0.01,-0.03l0.2,-0.76l-0.05,0.07l0.54,-0.54c-0.23,0.17 0.4,-0.1 -0.07,0.03c-0.14,0.04 -0.27,0.09 -0.41,0.13c-0.3,0.1 -0.6,0.19 -0.9,0.29c-0.6,0.19 -1.21,0.38 -1.82,0.56c-1.21,0.37 -2.43,0.72 -3.65,1.07c-0.76,0.21 -1.3,1.07 -1.05,1.85s1.04,1.27 1.85,1.05l0,0l-0.01,0z" fill="#fff"/>
    <path id="svg_23" class="cls-5" d="m178.35,134.98c-0.13,-0.02 -0.31,-0.05 -0.08,0c0.08,0.01 0.15,0.03 0.23,0.05c0.13,0.03 0.27,0.07 0.4,0.11s0.26,0.1 0.39,0.14c-0.37,-0.12 -0.16,-0.07 -0.07,-0.02c0.07,0.03 0.14,0.07 0.2,0.1c0.25,0.13 0.5,0.28 0.73,0.45c0.06,0.04 0.12,0.09 0.18,0.13c-0.05,-0.03 -0.24,-0.2 -0.09,-0.07c0.11,0.1 0.23,0.19 0.33,0.29c0.22,0.2 0.42,0.42 0.61,0.64c0.09,0.11 0.27,0.26 0.32,0.39c-0.03,-0.07 -0.17,-0.23 -0.05,-0.07c0.05,0.07 0.1,0.13 0.15,0.2c0.38,0.53 0.72,1.08 1.06,1.63c0.41,0.67 1.36,0.98 2.05,0.54s0.98,-1.34 0.54,-2.05c-0.77,-1.25 -1.58,-2.53 -2.69,-3.52c-0.53,-0.47 -1.12,-0.91 -1.75,-1.22c-0.8,-0.4 -1.58,-0.61 -2.47,-0.72c-0.35,-0.05 -0.82,0.2 -1.06,0.44c-0.26,0.26 -0.46,0.69 -0.44,1.06s0.14,0.79 0.44,1.06c0.31,0.29 0.64,0.39 1.06,0.44l0,0l0.01,0z" fill="#fff"/>
   </g>
   <g id="svg_35">
    <path id="svg_24" d="m86.84,186.75c13.13,-7.66 29.35,-9.24 43.83,-4.74c4.11,1.28 8.02,3.06 11.7,5.3c1.65,1.01 3.16,-1.59 1.51,-2.59c-13.68,-8.35 -30.87,-10.38 -46.22,-5.88c-4.3,1.26 -8.45,3.05 -12.33,5.31c-1.67,0.97 -0.16,3.57 1.51,2.59l0,0l0,0.01z"/>
   </g>
   <g id="svg_34">
    <path id="svg_25" d="m89.09,129.45c7.18,-2.71 13.29,-7.82 17.19,-14.43c0.49,-0.83 -0.8,-1.59 -1.3,-0.76c-3.7,6.26 -9.49,11.17 -16.29,13.75c-0.89,0.34 -0.51,1.79 0.4,1.45l0,0l0,-0.01z"/>
    <path id="svg_26" d="m140.93,127.88c-6.84,-2.48 -12.71,-7.3 -16.49,-13.51c-0.5,-0.82 -1.8,-0.07 -1.3,0.76c4,6.56 10.17,11.58 17.39,14.2c0.91,0.33 1.3,-1.12 0.4,-1.45l0,0z"/>
   </g>
  </g>
 </g>
</svg>