<?xml version="1.0" encoding="UTF-8"?><svg id="Layer_3" xmlns="http://www.w3.org/2000/svg" xmlns:xlink="http://www.w3.org/1999/xlink" viewBox="0 0 1792.31 1096.39"><defs><style>.cls-1{fill:#fff;}.cls-2{stroke:#fcf7fb;}.cls-2,.cls-3{stroke-miterlimit:10;}.cls-2,.cls-4{fill:#fcf7fb;}.cls-3{fill:none;stroke:#0c010a;stroke-width:4px;}.cls-5{fill:url(#radial-gradient);}.cls-6{fill:#fde846;}.cls-7{fill:#0c010a;}.cls-8{fill:url(#linear-gradient);}</style><radialGradient id="radial-gradient" cx="1067.51" cy="370.08" fx="1155.73" fy="297.7" r="114.1" gradientTransform="matrix(1, 0, 0, 1, 0, 0)" gradientUnits="userSpaceOnUse"><stop offset=".44" stop-color="#fde846"/><stop offset=".79" stop-color="#fde646"/><stop offset=".91" stop-color="#fddf46"/><stop offset="1" stop-color="#fdd446"/></radialGradient><linearGradient id="linear-gradient" x1="1070.76" y1="411.62" x2="1072.48" y2="442.53" gradientTransform="matrix(1, 0, 0, 1, 0, 0)" gradientUnits="userSpaceOnUse"><stop offset="0" stop-color="#d04a46"/><stop offset=".6" stop-color="#fd5b46"/><stop offset=".8" stop-color="#fa5a46"/></linearGradient></defs><g id="Layer_11"><circle class="cls-5" cx="1067.51" cy="370.08" r="114.1"/></g><g id="Layer_7"><circle class="cls-4" cx="1027.31" cy="351.33" r="31.73"/><g id="Layer_5"><circle class="cls-7" cx="1036.54" cy="351.26" r="16.97"/></g><circle class="cls-1" cx="1048.07" cy="347.42" r="6.36"/><g id="Layer_4"><path class="cls-6" d="M991.89,373.47s30.26-26.57,67.89-.74-30.99,27.3-30.99,27.3l-36.9-26.57Z"/></g></g><g id="Layer_6"><path class="cls-3" d="M1048.69,298.05s-23.79-15.24-43.85,12.24"/><path class="cls-3" d="M1089.84,299.05s23.79-15.24,43.85,12.24"/></g><g id="Layer_8"><circle class="cls-4" cx="1109.31" cy="351.33" r="31.73"/><circle class="cls-7" cx="1101.54" cy="351.26" r="16.97"/><path class="cls-6" d="M1076.89,372.81s30.26-26.57,67.89-.74c37.64,25.83-30.99,27.3-30.99,27.3l-36.9-26.57Z"/><circle class="cls-1" cx="1114.07" cy="346.42" r="6.36"/></g><g id="Layer_9"><path class="cls-7" d="M1006.29,387.3c21.02-2.24,70.05-2.71,115.72-8.51,24.11-3.07,4.64,49.54-13.16,54.96-21.48,6.54-68.89,9.68-89.79-1.55-9.75-5.24-24.96-43.6-12.77-44.9Z"/></g><g id="Layer_13"><g><path class="cls-4" d="M1003.8,399.63c24.11,3.07,30.59,2.88,46.49,2.71,27.59-.3,54.32-3.91,80.13-14.44"/><path class="cls-4" d="M1003.8,401.13c7.87,1,15.76,1.94,23.68,2.43,5.67,.35,11.34,.39,17.02,.34,18.4-.16,36.72-1.21,54.77-4.98,10.78-2.25,21.35-5.43,31.55-9.57,1.77-.72,.99-3.62-.8-2.89-17.95,7.29-36.97,11.45-56.23,13.22-9.06,.83-18.15,1.1-27.25,1.2-5.66,.06-11.32,.08-16.97-.21-8.62-.44-17.21-1.46-25.78-2.54-1.91-.24-1.89,2.76,0,3h0Z"/></g><g><path class="cls-4" d="M1003.8,399.63c-.81-2.55-1-4.85-.57-7.48,.29-1.81,1.25-3.42,3-3.96,1.22-.38,3.35-.9,4.87-.79"/><path class="cls-4" d="M1005.25,399.23c-.45-1.44-.73-2.88-.74-4.39,0-.76,.04-1.54,.17-2.29,.09-.55,.26-1.15,.46-1.53,.52-.99,1.08-1.28,2.18-1.58,1.25-.34,2.5-.61,3.79-.54,.81,.05,1.5-.72,1.5-1.5,0-.85-.69-1.45-1.5-1.5-1.61-.09-3.29,.27-4.83,.71s-2.84,1.31-3.65,2.75c-.86,1.51-1.07,3.33-1.11,5.04-.05,1.91,.27,3.81,.84,5.63,.57,1.84,3.47,1.05,2.89-.8h0Z"/></g><g><path class="cls-4" d="M1130.42,387.9c1.07-1,1.54-2.53,1.18-3.95-.21-.81-.66-1.54-1.19-2.18-1.95-2.36-3.75-3.21-9.02-2.49"/><path class="cls-4" d="M1131.48,388.96c1.14-1.11,1.84-2.72,1.73-4.32s-.96-3.06-2.05-4.3c-1.41-1.6-3.16-2.48-5.27-2.74-1.49-.18-3.01-.03-4.5,.17-.8,.11-1.5,.61-1.5,1.5,0,.73,.69,1.61,1.5,1.5,1.48-.2,2.95-.32,4.44-.18-.42-.04,.07,.01,.16,.03,.1,.02,.21,.04,.31,.07,.26,.06,.51,.16,.77,.23,.3,.08-.26-.14,0,0,.11,.06,.23,.11,.34,.17,.2,.11,.4,.24,.59,.37,.31,.2-.19-.18,.03,.02,.09,.08,.19,.16,.29,.25,.17,.15,.33,.32,.49,.48,.48,.51,.75,.84,1.07,1.43,.62,1.14,.41,2.32-.51,3.21-.58,.56-.57,1.55,0,2.12s1.54,.57,2.12,0h0Z"/></g><g><path class="cls-4" d="M1011.11,387.4c10.54-.9,20.85-1.73,31.4-2.63,27.68-2.37,55.38-4.74,83.16-5.54"/><path class="cls-4" d="M1011.11,388.9c29.74-2.54,59.48-5.33,89.28-7.05,8.42-.49,16.84-.87,25.27-1.12,1.93-.06,1.93-3.06,0-3-29.92,.87-59.74,3.58-89.56,6.08-8.33,.7-16.67,1.38-25,2.09-1.91,.16-1.93,3.16,0,3h0Z"/></g></g><g id="Layer_14"><path class="cls-2" d="M1006.21,389.19l119.37-10.48s9.55,3.97,5.32,8.95c-4.22,4.98-34.74,11.79-52.48,12.72s-68.66-1.74-73.75-.9c-4.53,.74,1.54-10.3,1.54-10.3Z"/></g><g id="Layer_10"><path class="cls-8" d="M1012.01,428.51s18.36-17.79,42.71-15.9,20.38-.35,35.56-1.17c10.08-.55,33.61,6.13,41.49,20.6,7.88,14.47-115.65,14.24-118.35,7.41-2.71-6.82-1.41-10.94-1.41-10.94Z"/><path class="cls-6" d="M1011.27,423.24c16.66,25.86,87.91,24.28,112.45-3.64,41.33-47.01,7.52,17.03,7.52,17.03,0,0-71.01,28.63-120.43,3.22-2.55-1.31-3.31-22.45,.45-16.61Z"/></g></svg>