<?xml version="1.0" encoding="UTF-8"?><svg id="Layer_27" xmlns="http://www.w3.org/2000/svg" xmlns:xlink="http://www.w3.org/1999/xlink" viewBox="0 0 1792.31 1096.39"><defs><style>.cls-1{stroke-width:4px;}.cls-1,.cls-2{fill:none;stroke:#000;stroke-miterlimit:10;}.cls-3{fill:#fff;}.cls-4{fill:#ff872e;}.cls-5{fill:url(#radial-gradient);}.cls-6{fill:#fcf7fb;}.cls-2{stroke-width:2px;}.cls-7{fill:#0c010a;}</style><radialGradient id="radial-gradient" cx="1551.31" cy="372.05" fx="1551.31" fy="257.67" r="114.41" gradientTransform="matrix(1, 0, 0, 1, 0, 0)" gradientUnits="userSpaceOnUse"><stop offset="0" stop-color="#ff872e"/><stop offset=".63" stop-color="#ff852e"/><stop offset=".86" stop-color="#ff7e2e"/><stop offset="1" stop-color="#ff752e"/></radialGradient></defs><g id="Layer_47"><circle class="cls-5" cx="1551.31" cy="372.05" r="114.41"/></g><circle class="cls-6" cx="1510.31" cy="353.33" r="31.73"/><circle class="cls-7" cx="1519.54" cy="353.26" r="16.97"/><circle class="cls-3" cx="1531.07" cy="349.42" r="6.36"/><circle class="cls-6" cx="1592.31" cy="353.33" r="31.73"/><circle class="cls-7" cx="1583.54" cy="353.26" r="16.97"/><circle class="cls-3" cx="1595.07" cy="349.42" r="6.36"/><g id="Layer_54"><path class="cls-4" d="M1561.9,316.41s1.42,34.46,69.45,34.96c-16.67-17.86-29.49-54.73-29.49-54.73l-39.97,19.77Z"/><path class="cls-4" d="M1537.96,323.31s-6.02,33.96-73.51,25.36c18.91-15.47,40.26-36.53,40.26-36.53l33.25,11.17Z"/><path class="cls-4" d="M1563.63,380.5c10.56-6.73,26.22-12.9,58.03-3.87,31.81,9.03-24.07,17.19-24.07,17.19,0,0-31.05,5.72-33.96-13.33Z"/><path class="cls-4" d="M1517.2,400.01l-32.85-15.86s27.12-10.88,58.16,.53"/></g><g id="Layer_72"><path d="M1534.73,310.49c.64,8.56-7.43,13.84-14.54,16.28-4.35,1.49-8.86,2.59-13.31,3.75s-9.28,2.36-13.96,3.41c-5.31,1.19-10.64,2.24-16.01,3.11-1.9,.31-1.09,3.2,.8,2.89,10.1-1.63,20.07-3.94,29.97-6.52,4.66-1.22,9.39-2.35,13.92-3.97,4.09-1.46,8.11-3.45,11.16-6.61s5.31-7.7,4.97-12.34c-.14-1.91-3.14-1.93-3,0h0Z"/><path d="M1566.13,311.36c-.83,3.69,.24,7.44,2.48,10.45s5.7,5.21,9.26,6.73c4.01,1.71,8.22,3,12.38,4.31,4.37,1.37,8.77,2.63,13.21,3.78,5.05,1.32,10.14,2.49,15.26,3.53,1.88,.38,2.69-2.51,.8-2.89-8.27-1.68-16.46-3.72-24.55-6.12-4.04-1.2-8.06-2.48-12.03-3.87-3.38-1.18-6.87-2.52-9.65-4.85-2.94-2.47-5.14-6.34-4.26-10.27,.42-1.88-2.47-2.68-2.89-.8h0Z"/></g><g id="Layer_55"><path class="cls-1" d="M1493.76,419.92s7.9-21.64,16.69-18.2c8.79,3.44,11.56,17.78,19.93,16.92,8.37-.86,11.05-26.22,25.28-24.93s12.56,28.37,23.86,27.51,9.63-18.63,19.68-18.21c8.37,.35,12.93,13.47,13.76,18.63"/><path class="cls-2" d="M1481.82,416.92s-3.51,23.21,17.42,9.46"/><path class="cls-2" d="M1621.83,416.92s3.51,23.21-17.42,9.46"/></g></svg>