<?xml version="1.0" encoding="UTF-8"?><svg id="Layer_21" xmlns="http://www.w3.org/2000/svg" xmlns:xlink="http://www.w3.org/1999/xlink" viewBox="0 0 1792.31 1096.39"><defs><style>.cls-1{fill:none;stroke:#000;stroke-miterlimit:10;stroke-width:4px;}.cls-2{fill:#fff;}.cls-3{fill:url(#radial-gradient);}.cls-4{fill:#fcf7fb;}.cls-5{fill:#ea2718;}.cls-6{fill:#0c010a;}</style><radialGradient id="radial-gradient" cx="1310.31" cy="372.05" fx="1388.13" fy="455.92" r="114.41" gradientTransform="matrix(1, 0, 0, 1, 0, 0)" gradientUnits="userSpaceOnUse"><stop offset=".7" stop-color="#ea2718"/><stop offset=".85" stop-color="#e82718"/><stop offset=".9" stop-color="#e12718"/><stop offset=".93" stop-color="#d52718"/><stop offset=".96" stop-color="#c42718"/><stop offset=".99" stop-color="#ae2718"/><stop offset="1" stop-color="#a02718"/></radialGradient></defs><g id="Layer_46"><circle class="cls-3" cx="1310.31" cy="372.05" r="114.41"/></g><circle class="cls-4" cx="1269.31" cy="353.33" r="31.73"/><circle class="cls-6" cx="1278.54" cy="353.26" r="16.97"/><circle class="cls-2" cx="1290.07" cy="349.42" r="6.36"/><circle class="cls-4" cx="1351.31" cy="353.33" r="31.73"/><circle class="cls-6" cx="1343.54" cy="353.26" r="16.97"/><circle class="cls-2" cx="1356.07" cy="348.42" r="6.36"/><path class="cls-5" d="M1225.89,375.81s30.26-26.57,67.89-.74c37.64,25.83-30.99,27.3-30.99,27.3l-36.9-26.57Z"/><g id="Layer_23"><path class="cls-2" d="M1253.58,393.99c76.98,18.37,89.03-2.43,116.06-4.3,4.58,8.01,18.37,34.39,18.37,34.39,0,0-51.19-5.86-82.06-5.08s-69.95,11.33-69.95,11.33c0,0,10.59-24.85,17.58-36.34Z"/></g><g id="Layer_24"><path class="cls-1" d="M1316.48,325.91l6.19,9.9s25.39-16.89,41.44-21.56"/><path class="cls-1" d="M1303.76,325.37l-6.65,9.74s-25.92-17.5-42.44-22.56"/></g><g id="Layer_50"><path d="M1232,419.36c-2.46,3.07-4.28,6.58-5.3,10.39-.9,3.36-1.49,7.27,1.7,9.61,3.2,2.35,7.31,1.12,10.78,.17,4.38-1.2,8.68-2.66,12.89-4.35,1.33-.53,.75-2.71-.6-2.17-3.41,1.37-6.88,2.6-10.41,3.65-1.7,.51-3.41,.99-5.14,1.4s-3.51,.72-5.15,.07c-3.53-1.38-2.59-5.31-1.78-8.18,.93-3.26,2.49-6.34,4.61-8.99,.9-1.12-.69-2.72-1.59-1.59h0Z"/><path d="M1391.14,418.22c1.73,2.14,3.17,4.53,4.25,7.07,.5,1.17,1.36,2.83,.64,4.06-.71,1.22-2.23,1.54-3.53,1.57-2.9,.05-5.95-.63-8.77-1.27-2.99-.68-5.91-1.59-8.77-2.7-1.35-.52-1.94,1.65-.6,2.17,3.45,1.34,7.01,2.38,10.65,3.1,1.77,.35,3.57,.62,5.36,.82,1.7,.19,3.47,.26,5.08-.42,1.26-.54,2.37-1.51,2.85-2.82,.57-1.57,.03-3.17-.56-4.65-1.24-3.09-2.93-5.92-5.01-8.51-.91-1.13-2.49,.47-1.59,1.59h0Z"/><path d="M1377.7,405.7c-14.25,.83-28.51,1.59-42.77,2.3-1.92,.09-1.93,3.09,0,3,14.26-.7,28.51-1.47,42.77-2.3,1.92-.11,1.93-3.11,0-3h0Z"/><path d="M1245.5,412.59c9.87-.5,19.75-.66,29.63-.49,1.93,.03,1.93-2.97,0-3-9.88-.17-19.76,0-29.63,.49-1.92,.1-1.93,3.1,0,3h0Z"/></g></svg>