<?xml version="1.0" encoding="UTF-8"?><svg id="Layer_37" xmlns="http://www.w3.org/2000/svg" xmlns:xlink="http://www.w3.org/1999/xlink" viewBox="0 0 1792.31 1096.39"><defs><style>.cls-1{fill:url(#linear-gradient-2);}.cls-2{fill:none;stroke-width:4px;}.cls-2,.cls-3{stroke:#000;}.cls-2,.cls-3,.cls-4{stroke-miterlimit:10;}.cls-5,.cls-4{fill:#fff;}.cls-6{fill:url(#radial-gradient);}.cls-7{fill:#fcf7fb;}.cls-8{fill:#0c010a;}.cls-4{stroke:#fff;}.cls-9{fill:url(#linear-gradient-3);}.cls-10{fill:url(#linear-gradient);}</style><radialGradient id="radial-gradient" cx="1551.31" cy="633.05" fx="1634.01" fy="706.58" r="114.41" gradientTransform="matrix(1, 0, 0, 1, 0, 0)" gradientUnits="userSpaceOnUse"><stop offset=".44" stop-color="#d17dd3"/><stop offset=".71" stop-color="#d17bd3"/><stop offset=".81" stop-color="#d174d4"/><stop offset=".88" stop-color="#d168d6"/><stop offset=".94" stop-color="#d157d9"/><stop offset=".99" stop-color="#d141dd"/><stop offset="1" stop-color="#d13bdf"/></radialGradient><linearGradient id="linear-gradient" x1="1498.48" y1="688.65" x2="1602.48" y2="688.65" gradientTransform="matrix(1, 0, 0, 1, 0, 0)" gradientUnits="userSpaceOnUse"><stop offset="0" stop-color="#d04a46"/><stop offset=".6" stop-color="#fd5b46"/><stop offset=".8" stop-color="#fa5a46"/></linearGradient><linearGradient id="linear-gradient-2" x1="1498.02" y1="682.7" x2="1603.2" y2="682.7" xlink:href="#linear-gradient"/><linearGradient id="linear-gradient-3" x1="1498.11" y1="682" x2="1602.68" y2="682" xlink:href="#linear-gradient"/></defs><g id="Layer_48"><circle class="cls-6" cx="1551.31" cy="633.05" r="114.41"/></g><circle class="cls-7" cx="1510.31" cy="613.33" r="31.73"/><ellipse class="cls-8" cx="1515.92" cy="606.68" rx="11.35" ry="10.39"/><ellipse class="cls-5" cx="1523.63" cy="604.33" rx="4.25" ry="3.89"/><circle class="cls-7" cx="1592.31" cy="613.33" r="31.73"/><ellipse class="cls-8" cx="1588.6" cy="605.37" rx="9.91" ry="9.08"/><ellipse class="cls-5" cx="1595.92" cy="602.78" rx="3.71" ry="3.4"/><g id="Layer_40"><path class="cls-2" d="M1533.51,557.49s-.45,6.84-1.98,8.33c-6.9,6.72-37.7,7.94-37.7,7.94"/><path class="cls-3" d="M1485.3,651.54c17.24,0,44.38,10.27,65.28,6.97s55.38-10.64,64.18-7.34c12.75,7.25,16.99,25.55,11.49,45.72-13.61-3.64-39.73-11.61-79.71-11.61-19.13,0-46.58,5.13-72.25,14.3-8.7-8.73-2.76-42.83,11-48.05Z"/><path class="cls-2" d="M1571.83,557.49s.45,6.84,1.98,8.33c6.9,6.72,37.7,7.94,37.7,7.94"/></g><g id="Layer_44"><path class="cls-10" d="M1498.98,692.83c26.84-5.33,54.52-6.86,81.75-3.91,7.13,.77,14.22,1.88,21.25,3.31,1.88,.38,2.69-2.51,.8-2.89-26.5-5.4-53.88-6.16-80.72-3.12-8.01,.91-15.97,2.15-23.87,3.72-1.89,.38-1.09,3.27,.8,2.89h0Z"/><path class="cls-1" d="M1604.15,690.7c.46-3.76-3.12-7.39-5.74-9.65-2.9-2.51-6.24-4.4-9.8-5.8-7.91-3.12-16.7-3.43-24.99-1.83-2.16,.42-4.3,.98-6.39,1.67-.96,.32-1.92,.67-2.86,1.04s-1.91,.93-2.91,1.19c-1.05,.27-1.68-.56-2.49-1.11s-1.6-.96-2.45-1.34c-1.79-.79-3.66-1.32-5.59-1.64-4.12-.69-8.31-.64-12.46-.39-4.44,.28-8.91,.83-13.2,2.04-7.79,2.18-16.85,7.4-18.2,16.18-.29,1.89,2.6,2.7,2.89,.8,1.09-7.1,8.09-11.5,14.4-13.56,3.97-1.3,8.12-1.97,12.27-2.31,3.94-.33,7.95-.49,11.89-.07,3.56,.38,6.95,1.38,9.82,3.56,1.69,1.28,3.35,1.04,5.2,.24s3.64-1.47,5.52-2.05c7.71-2.37,16.12-2.99,24-1.02,3.92,.98,7.69,2.57,11.03,4.86,1.56,1.07,3,2.31,4.27,3.7,1.35,1.48,3.05,3.39,2.78,5.52-.24,1.91,2.77,1.89,3,0h0Z"/></g><g id="Layer_45"><path class="cls-9" d="M1498.11,691.54c3.51-8.69,24.66-27.51,51.96-12.73,19.72-6.69,20.35-7.6,26.25-4.96,30.78,5.18,26.11,17.59,26.11,17.59,0,0-29.49-7.47-51.21-5.2-21.85,.11-35.45,2.05-53.11,5.31Z"/></g><g id="Layer_43"><path class="cls-4" d="M1477.86,659.37s14.25,6.52,71.23,7.38c56.98,.86,67.53-13.61,67.53-13.61,0,0,1.3-1.82-14.03-4.22-11.2-.29-34.8,7.95-44.15,7.19-9.57,1.25-32.73,1.72-53.07-2.3-20.34-4.02-23.6-.86-23.6-.86l-3.91,6.42Z"/></g><g id="Layer_42"><path class="cls-5" d="M1477.27,660.79c8.68,3.33,18.12,4.03,27.29,4.9,9.58,.9,19.18,1.59,28.8,1.91,19.11,.65,38.33-.13,57.18-3.49,9.25-1.65,19.51-3.38,26.91-9.62,1.48-1.25-.65-3.36-2.12-2.12-6.3,5.32-15.15,6.87-23.01,8.38-9.17,1.76-18.45,2.86-27.77,3.47-18.71,1.22-37.5,.46-56.16-1.18-10.15-.89-20.72-1.46-30.32-5.14-1.8-.69-2.58,2.21-.8,2.89h0Z"/><g><path class="cls-5" d="M1617.16,652.87c-2.93-1.88-6.61-2.63-10.22-2.97-17.31-1.63-34.15,5.08-51.47,6.56-8.09,.69-16.24,.24-24.35-.21-9.78-.54-19.61-1.1-29.15-3.04-4.72-.96-9.51-2.27-14.31-1.73-4.52,.52-9.74,3.8-10.38,8.07"/><path class="cls-5" d="M1617.92,651.58c-3.96-2.45-8.72-3.1-13.29-3.34-4.9-.26-9.8,.12-14.66,.79-9.7,1.33-19.19,3.88-28.88,5.29-10.27,1.5-20.61,.97-30.93,.39s-20.36-1.34-30.4-3.49c-5.01-1.07-10.54-2.24-15.53-.45-3.77,1.35-7.66,4.22-8.4,8.4-.33,1.89,2.56,2.7,2.89,.8,.61-3.44,4-5.66,7.15-6.58,4.48-1.31,9.38-.07,13.81,.88,9.57,2.05,19.29,2.81,29.04,3.36s19.57,1.2,29.31,.09c9.42-1.07,18.61-3.44,27.94-5.05,5.18-.89,10.41-1.53,15.67-1.51,4.97,.02,10.44,.33,14.78,3.01,1.65,1.02,3.15-1.57,1.51-2.59h0Z"/></g><path class="cls-5" d="M1476.95,661.43c19.98,5.81,40.94,2.81,61.38,2.5,1.93-.03,1.93-3.03,0-3-20.15,.3-40.87,3.34-60.58-2.39-1.86-.54-2.65,2.35-.8,2.89h0Z"/><path class="cls-5" d="M1581.54,665.89c13.39-1.19,26.64-3.71,39.51-7.58,1.84-.56,1.06-3.45-.8-2.89-12.61,3.8-25.59,6.31-38.71,7.48-1.91,.17-1.93,3.17,0,3h0Z"/><path class="cls-5" d="M1611.15,659.66c2.3-.65,4.6-1.32,6.86-2.07,.83-.28,1.46-.8,1.5-1.74,.02-.6-.32-1.25-.55-1.79-.44-1.01-1.1-1.87-2.04-2.45-.67-.41-1.68-.17-2.05,.54-.4,.76-.16,1.58,.54,2.05,.74,.5,1.47,1,2.2,1.5,.14,.1,.15,.11,.03,.02,.07,.06,.14,.12,.21,.18,.13,.12,.26,.25,.38,.38-.1-.13-.11-.13-.01,0,.08,.15,.08,.14,0-.03,.04,.17,.04,.15,0-.06,0,.17,0,.15,0-.05-.18,.76,.24,1.66,1.05,1.85s1.65-.23,1.85-1.05c.63-2.66-2.4-4.11-4.2-5.33l-1.51,2.59c.08,.05,.32,.25,.13,.08,.1,.09,.19,.18,.28,.27,.27,.28-.12-.22,.08,.11,.07,.11,.14,.22,.2,.33s.12,.23,.18,.35c.14,.29-.07-.21,.05,.12,.04,.1,.08,.2,.11,.3,.02,.06,.04,.12,.07,.18,.05,.17,.06,.16,.01-.03l.2-.76-.05,.07,.54-.54c-.23,.17,.4-.1-.07,.03-.14,.04-.27,.09-.41,.13-.3,.1-.6,.19-.9,.29-.6,.19-1.21,.38-1.82,.56-1.21,.37-2.43,.72-3.65,1.07-.76,.21-1.3,1.07-1.05,1.85s1.04,1.27,1.85,1.05h0Z"/><path class="cls-5" d="M1615.25,653.62c-.13-.02-.31-.05-.08,0,.08,.01,.15,.03,.23,.05,.13,.03,.27,.07,.4,.11s.26,.1,.39,.14c-.37-.12-.16-.07-.07-.02,.07,.03,.14,.07,.2,.1,.25,.13,.5,.28,.73,.45,.06,.04,.12,.09,.18,.13-.05-.03-.24-.2-.09-.07,.11,.1,.23,.19,.33,.29,.22,.2,.42,.42,.61,.64,.09,.11,.27,.26,.32,.39-.03-.07-.17-.23-.05-.07,.05,.07,.1,.13,.15,.2,.38,.53,.72,1.08,1.06,1.63,.41,.67,1.36,.98,2.05,.54s.98-1.34,.54-2.05c-.77-1.25-1.58-2.53-2.69-3.52-.53-.47-1.12-.91-1.75-1.22-.8-.4-1.58-.61-2.47-.72-.35-.05-.82,.2-1.06,.44-.26,.26-.46,.69-.44,1.06s.14,.79,.44,1.06c.31,.29,.64,.39,1.06,.44h0Z"/></g><g id="Layer_51"><path d="M1523.74,705.39c13.13-7.66,29.35-9.24,43.83-4.74,4.11,1.28,8.02,3.06,11.7,5.3,1.65,1.01,3.16-1.59,1.51-2.59-13.68-8.35-30.87-10.38-46.22-5.88-4.3,1.26-8.45,3.05-12.33,5.31-1.67,.97-.16,3.57,1.51,2.59h0Z"/></g><g id="Layer_56"><path d="M1525.99,648.09c7.18-2.71,13.29-7.82,17.19-14.43,.49-.83-.8-1.59-1.3-.76-3.7,6.26-9.49,11.17-16.29,13.75-.89,.34-.51,1.79,.4,1.45h0Z"/><path d="M1577.83,646.52c-6.84-2.48-12.71-7.3-16.49-13.51-.5-.82-1.8-.07-1.3,.76,4,6.56,10.17,11.58,17.39,14.2,.91,.33,1.3-1.12,.4-1.45h0Z"/></g></svg>