<?xml version="1.0" encoding="UTF-8"?><svg id="Layer_16" xmlns="http://www.w3.org/2000/svg" xmlns:xlink="http://www.w3.org/1999/xlink" viewBox="0 0 1792.31 1096.39"><defs><style>.cls-1{stroke-width:4px;}.cls-1,.cls-2{fill:none;stroke:#000;stroke-miterlimit:10;}.cls-3{fill:#fff;}.cls-4{fill:#057bc4;}.cls-2{stroke-width:3px;}.cls-5{fill:url(#radial-gradient);}.cls-6{fill:#fcf7fb;}.cls-7{fill:#0c010a;}</style><radialGradient id="radial-gradient" cx="830.51" cy="370.08" fx="908.57" fy="286.85" r="114.1" gradientTransform="matrix(1, 0, 0, 1, 0, 0)" gradientUnits="userSpaceOnUse"><stop offset=".44" stop-color="#057bc4"/><stop offset=".72" stop-color="#0579c3"/><stop offset=".82" stop-color="#0572bf"/><stop offset=".89" stop-color="#0566ba"/><stop offset=".95" stop-color="#0555b2"/><stop offset="1" stop-color="#0541a9"/></radialGradient></defs><g id="Layer_49"><circle class="cls-5" cx="830.51" cy="370.08" r="114.1"/></g><g id="Layer_17"><circle class="cls-6" cx="790.31" cy="353.33" r="31.73"/><circle class="cls-7" cx="799.54" cy="353.26" r="16.97"/><circle class="cls-3" cx="811.07" cy="349.42" r="6.36"/><circle class="cls-6" cx="872.31" cy="353.33" r="31.73"/><circle class="cls-7" cx="864.54" cy="353.26" r="16.97"/><circle class="cls-3" cx="877.07" cy="348.42" r="6.36"/></g><g id="Layer_18"><path class="cls-1" d="M807.97,307s-6.07,16.65-44.11,17.62"/><path class="cls-4" d="M751.89,373.47s30.26-26.57,67.89-.74-30.99,27.3-30.99,27.3l-36.9-26.57Z"/><path class="cls-4" d="M836.89,374.81s30.26-26.57,67.89-.74c37.64,25.83-30.99,27.3-30.99,27.3l-36.9-26.57Z"/><path class="cls-1" d="M853.17,307.15s5.97,16.58,43.04,17.18"/><path class="cls-2" d="M757.21,418.47s-5.3,23.32,18.73,10.6"/><path class="cls-2" d="M905.44,418.47s5.3,23.32-18.73,10.6"/></g><g id="Layer_19"><path d="M768.42,422.33c8.75-18.21,30.1-23.79,48.6-25.34,9.38-.79,18.88-.72,28.26,.2,8.83,.86,17.86,2.47,25.84,6.52,8.83,4.49,15.88,11.49,21.97,19.19,.75,.95,2.39,.79,3.18,0,.94-.94,.76-2.23,0-3.18-5.7-7.2-12.27-13.81-20.26-18.46s-17.6-6.96-27.04-8.15-19.7-1.45-29.52-.79c-10.75,.71-21.63,2.39-31.58,6.67-9.78,4.21-18.66,11.36-23.34,21.09-.53,1.09-.3,2.43,.81,3.08,.98,.58,2.55,.29,3.08-.81h0Z"/></g><g id="Layer_20"><path d="M816.38,423.68h31.69c1.93,0,1.93-3,0-3h-31.69c-1.93,0-1.93,3,0,3h0Z"/></g></svg>