<?xml version="1.0" encoding="UTF-8"?><svg id="Layer_77" xmlns="http://www.w3.org/2000/svg" xmlns:xlink="http://www.w3.org/1999/xlink" viewBox="0 0 1792.31 1096.39"><defs><style>.cls-1,.cls-2{fill:#fff;}.cls-3{fill:url(#radial-gradient);}.cls-4{fill:#7aa0e1;}.cls-2{stroke:#fff;stroke-miterlimit:10;}</style><radialGradient id="radial-gradient" cx="494.79" cy="787.43" fx="420.34" fy="787.43" r="74.49" gradientTransform="matrix(1, 0, 0, 1, 0, 0)" gradientUnits="userSpaceOnUse"><stop offset=".44" stop-color="#fde846"/><stop offset=".79" stop-color="#fde646"/><stop offset=".91" stop-color="#fddf46"/><stop offset="1" stop-color="#fdd446"/></radialGradient></defs><circle class="cls-3" cx="494.79" cy="787.43" r="74.49"/><g id="Layer_66"><path d="M428.36,763.88c-4.9,9.57-5.45,34.96,22.68,38.23,21.9,2.55,26.22-11.18,38.35-19.61,2.01-1.4,7.96-2.36,10.84,.31,6.55,6.09,19.08,19.21,33.99,18.68,15.05-.54,23.9-7.97,27-18.17,3.64-20.03-7.66-27.9-15.2-34.02-7.28-5.92-25.06-13.26-48.93-12.9-35.44,.53-46.43,7.97-52.66,11.42s-12.49,9.07-16.07,16.06Z"/><g id="Layer_70"><path class="cls-4" d="M479.33,830.3c-2.83,5.26,.25,11.71-1.09,17.53-.36,1.55-.94,3.12-2.13,4.17-1.65,1.44-4.2,1.52-6.16,.54s-3.33-2.87-4.11-4.92-1.02-4.25-1.19-6.43c-.25-3.42-2.25-7.13-.26-9.92"/></g><path d="M449.1,830.77c-.62-7.67,9.78-29.15,46.9-27.75,32.7,1.23,45.17,16.2,46.34,26.46,.44,3.9-2.11,7.96-7.06,8.69-9.07,1.34-28.85-7.54-38.98-7.33-8.33,.17-29.75,10.16-39.24,8.32-5.31-.76-7.81-4.95-7.95-8.39Z"/><path d="M451.19,741.54c5.26-7.75,14.1-12.85,23.44-13.5,1.92-.13,1.93-3.14,0-3-10.46,.73-20.14,6.31-26.03,14.99-1.09,1.6,1.51,3.1,2.59,1.51h0Z"/><path class="cls-1" d="M460.32,814.86c17.01,3.59,34.56,4.28,51.79,1.97,4.83-.65,9.63-1.52,14.38-2.63,1.88-.44,1.08-3.33-.8-2.89-16.43,3.82-33.47,4.82-50.24,2.98-4.82-.53-9.6-1.32-14.34-2.32-1.88-.4-2.69,2.49-.8,2.89h0Z"/><path class="cls-1" d="M461.34,814.5c2.79-3.14,6.76-4.96,10.65-6.35,4.18-1.49,8.56-2.42,12.97-2.85,8.87-.87,17.87,.03,26.58,1.82,2.42,.5,4.83,1.09,7.17,1.89,1.22,.41,2.42,.88,3.58,1.43,.85,.4,2.48,.94,2.99,1.77,1,1.65,3.6,.14,2.59-1.51-1.1-1.8-3.62-2.69-5.47-3.48-2.26-.96-4.61-1.71-6.99-2.3-4.72-1.18-9.56-1.95-14.4-2.46-9.53-1-19.41-.63-28.58,2.36-4.78,1.56-9.81,3.7-13.21,7.54-1.28,1.44,.84,3.57,2.12,2.12h0Z"/><path class="cls-1" d="M525.55,811.79c0,.06,0,.11,0,.16l.05-.4c-.01,.05-.03,.1-.05,.15l.15-.36c-.03,.05-.05,.1-.09,.14l.23-.3c-.05,.06-.1,.11-.16,.16l.3-.23c-.08,.06-.17,.11-.26,.15l.36-.15c-.5,.19-1.07,.22-1.59,.3l-1.72,.27c-.35,.06-.73,.4-.9,.69-.19,.32-.27,.8-.15,1.16s.34,.71,.69,.9l.36,.15c.27,.07,.53,.07,.8,0l2.57-.41c.46-.07,.94-.17,1.33-.45,.32-.22,.58-.47,.78-.81s.31-.75,.28-1.12c-.03-.4-.15-.77-.44-1.06-.26-.26-.69-.46-1.06-.44s-.79,.14-1.06,.44-.47,.67-.44,1.06h0Z"/><path d="M420.92,791.45c.83-7.63,4.89-14.66,10.9-19.38,.64-.5,.52-1.59,0-2.12-.62-.64-1.49-.5-2.12,0-6.66,5.24-10.87,13.11-11.78,21.51-.09,.81,.75,1.49,1.5,1.5,.88,0,1.41-.7,1.5-1.5h0Z"/><path d="M423.32,801.88c1.2-2.73,2.41-5.59,4.29-7.94,2-2.49,4.87-3.9,7.14-6.09,1.39-1.34-.73-3.46-2.12-2.12-2.34,2.24-5.25,3.69-7.29,6.27s-3.33,5.43-4.61,8.36c-.32,.74-.22,1.61,.54,2.05,.64,.37,1.73,.21,2.05-.54h0Z"/><path d="M559.35,785.14c1.59,1.38,3.18,2.76,4.6,4.32,.74,.81,1.21,1.39,1.77,2.23,.29,.43,.56,.88,.81,1.34,.11,.21,.22,.42,.32,.63,.06,.12,.11,.24,.16,.36-.09-.21,.09,.22,.09,.23,.3,.75,1,1.28,1.85,1.05,.72-.2,1.35-1.09,1.05-1.85-1.7-4.32-5.09-7.45-8.53-10.43-.61-.53-1.52-.6-2.12,0-.54,.54-.62,1.59,0,2.12h0Z"/><path d="M558.05,770.47c4.31,4.18,7.88,9.03,10.61,14.38,.88,1.72,3.47,.2,2.59-1.51-2.84-5.56-6.6-10.64-11.08-14.99-1.39-1.35-3.51,.77-2.12,2.12h0Z"/><path d="M539.92,740.03c-5.88-8.68-15.57-14.25-26.03-14.99-1.93-.14-1.92,2.87,0,3,9.34,.66,18.18,5.75,23.44,13.5,1.08,1.59,3.68,.09,2.59-1.51h0Z"/></g><g id="Layer_68"><path class="cls-2" d="M460.77,813.27s14.86-12.49,29.41-10.29,30.96,3.86,35.18,7.29c4.22,3.43-3.04,3.39-3.04,3.39,0,0-29.25,5.24-39.64,3.14s-21.91-3.53-21.91-3.53Z"/></g><g id="Layer_69"><path class="cls-4" d="M544.41,793.2c4.51-1.32,9.12-2.27,13.79-2.79l-1.06-2.56c-4.37,4.31-8.42,8.99-11.97,14-.46,.65-.8,1.38-.55,2.19,.22,.71,.82,1.23,1.53,1.43,1.33,.38,2.9-.16,4.21-.37l9.96-1.63c.8-.13,1.25-1.12,1.05-1.85-.23-.85-1.04-1.18-1.85-1.05l-6.85,1.12-3.42,.56c-.52,.08-1.04,.17-1.56,.25,.07-.01-.58,.07-.59,.08h-.19c.25-.07,.44,.09,.57,.49v.8c.08-.54,.81-1.24,1.14-1.69,.44-.6,.89-1.2,1.35-1.79,.95-1.23,1.93-2.43,2.94-3.61,2.01-2.37,4.14-4.64,6.35-6.82,.85-.84,.28-2.71-1.06-2.56-4.94,.55-9.82,1.5-14.59,2.9-1.85,.54-1.06,3.44,.8,2.89h0Z"/><path class="cls-4" d="M559.14,758.23c5.35-.52,10.71-.86,16.07-1.02l-2.17-1.65,.2-.99-.19,.2c-.18,.11-.35,.34-.5,.49-.37,.37-.75,.73-1.12,1.1-.7,.7-1.39,1.4-2.08,2.12-1.37,1.42-2.72,2.87-4.04,4.35-2.69,3.01-5.24,6.13-7.7,9.32-.53,.69-.32,1.88,.18,2.5,.6,.76,1.43,.96,2.37,.81l18.3-2.99c1.2-.2,1.87-1.69,1.57-2.77-.35-1.27-1.56-1.77-2.77-1.57l-18.3,2.99,2.54,3.31c2.58-3.35,5.32-6.58,8.17-9.71,1.41-1.55,2.86-3.06,4.33-4.55,1.55-1.56,4.09-3.28,3.38-5.8-.26-.93-1.18-1.68-2.17-1.65-5.37,.16-10.73,.5-16.07,1.02-1.21,.12-2.25,.95-2.25,2.25,0,1.13,1.03,2.37,2.25,2.25h0Z"/><path class="cls-4" d="M545.37,719.43c4.39-.62,8.82-1,13.25-1.19,1.13-.05,2.27-.08,3.41-.1,.6-.01,1.36,.11,1.95-.02,1.18,.12,.8-.56-1.15-2.04l-.1,.32c-.21,.2-.84,1.21-1.21,1.69-.65,.86-1.38,1.67-2.11,2.47-5.45,5.94-12.21,11.2-14.21,19.42-.43,1.75,.88,3.97,2.89,3.8,8.8-.76,17.61-1.34,26.44-1.74,1.62-.07,3-1.33,3-3,0-1.57-1.37-3.07-3-3-8.82,.4-17.64,.98-26.44,1.74l2.89,3.8c1.64-6.71,7.38-11.19,11.93-15.97,1.32-1.39,2.56-2.85,3.72-4.39s2.35-3.31,2.1-5.37c-.3-2.49-2.42-3.67-4.75-3.73-2.02-.05-4.06,.06-6.08,.15-4.73,.22-9.43,.71-14.12,1.37-1.61,.23-2.49,2.27-2.1,3.69,.47,1.73,2.08,2.32,3.69,2.1h0Z"/></g></svg>