<?xml version="1.0" encoding="UTF-8"?><svg id="Layer_57" xmlns="http://www.w3.org/2000/svg" xmlns:xlink="http://www.w3.org/1999/xlink" viewBox="0 0 1792.31 1096.39"><defs><style>.cls-1{fill:#fff;}.cls-2{fill:url(#radial-gradient);}.cls-3{fill:none;stroke:#000;stroke-miterlimit:10;stroke-width:2px;}.cls-4{fill:url(#radial-gradient-2);}.cls-5{fill:#fde846;}.cls-6{fill:url(#radial-gradient-3);}.cls-7{fill:#0c010a;}</style><radialGradient id="radial-gradient" cx="323.28" cy="597.43" fx="248.58" fy="597.43" r="74.74" gradientTransform="matrix(1, 0, 0, 1, 0, 0)" gradientUnits="userSpaceOnUse"><stop offset=".44" stop-color="#fde846"/><stop offset=".79" stop-color="#fde646"/><stop offset=".91" stop-color="#fddf46"/><stop offset="1" stop-color="#fdd446"/></radialGradient><radialGradient id="radial-gradient-2" cx="353.97" cy="598.91" fx="353.97" fy="598.91" r="27.39" gradientTransform="matrix(1, 0, 0, 1, 0, 0)" gradientUnits="userSpaceOnUse"><stop offset=".83" stop-color="#fdd446"/><stop offset=".91" stop-color="#fdd646"/><stop offset=".97" stop-color="#fddf46"/><stop offset="1" stop-color="#fde846"/></radialGradient><radialGradient id="radial-gradient-3" cx="293.97" fx="293.97" xlink:href="#radial-gradient-2"/></defs><path class="cls-2" d="M398.28,597.43c0,41.14-33.35,74.49-74.49,74.49s-76.12-33.88-75.49-74.49,34.35-74.49,75.49-74.49,74.49,33.35,74.49,74.49Z"/><ellipse class="cls-4" cx="353.97" cy="598.91" rx="25.44" ry="29.22"/><ellipse class="cls-6" cx="293.97" cy="598.91" rx="25.44" ry="29.22"/><g id="Layer_59"><line class="cls-3" x1="319.85" y1="592.89" x2="269.18" y2="592.89"/><line class="cls-3" x1="379.85" y1="592.89" x2="329.18" y2="592.89"/><path d="M287.7,639.26l56.47,.75,15.99,.21v-3l-14.4-.19c-1.93-.03-1.93,2.97,0,3l14.4,.19c1.93,.03,1.93-2.97,0-3l-56.47-.75-15.99-.21c-1.93-.03-1.93,2.97,0,3h0Z"/></g><g id="Layer_58"><circle class="cls-1" cx="354.1" cy="594.13" r="25.44"/><circle class="cls-7" cx="354.28" cy="598.94" r="10.97"/><circle class="cls-1" cx="362.39" cy="595.8" r="4.11"/><circle class="cls-1" cx="294.21" cy="594.13" r="25.44"/><circle class="cls-7" cx="294.03" cy="598.94" r="10.97"/><circle class="cls-1" cx="303.92" cy="595.8" r="4.11"/></g><polygon class="cls-5" points="319.85 592.66 388.45 592.91 368.63 564.27 329.59 569.3 319.85 592.66"/><path class="cls-5" d="M328.45,592.66l-61.54,.44s3.65-21.08,12.76-26.44c8.44-4.95,39.04,2.64,39.04,2.64l9.74,23.36Z"/></svg>