<?xml version="1.0" encoding="UTF-8"?><svg id="Layer_61" xmlns="http://www.w3.org/2000/svg" xmlns:xlink="http://www.w3.org/1999/xlink" viewBox="0 0 1792.31 1096.39"><defs><style>.cls-1{fill:#fff;}.cls-2{fill:url(#radial-gradient);}</style><radialGradient id="radial-gradient" cx="324.79" cy="787.43" fx="250.34" fy="787.43" r="74.49" gradientTransform="matrix(1, 0, 0, 1, 0, 0)" gradientUnits="userSpaceOnUse"><stop offset=".44" stop-color="#fde846"/><stop offset=".79" stop-color="#fde646"/><stop offset=".91" stop-color="#fddf46"/><stop offset="1" stop-color="#fdd446"/></radialGradient></defs><circle class="cls-2" cx="324.79" cy="787.43" r="74.49"/><path d="M359.78,835.15c0,6.78-15.99-2.99-35.21-2.99s-34.4,9.77-34.4,2.99,15.58-12.28,34.81-12.28,34.81,5.5,34.81,12.28Z"/><g id="Layer_64"><path d="M258.36,769.23c-4.9,11.08-5.45,40.49,22.68,44.28,21.9,2.95,26.22-12.95,38.35-22.71,2.01-1.62,7.96-2.73,10.84,.36,6.55,7.05,19.08,22.25,33.99,21.63,15.05-.63,23.9-9.23,27-21.04,3.64-23.2-7.66-32.31-15.2-39.4s-25.06-15.36-48.93-14.94c-35.44,.62-46.43,9.22-52.66,13.22s-12.49,10.5-16.07,18.6Z"/><path d="M252.58,785.47c.01-.14,.03-.32,0-.08,.02-.14,.05-.28,.07-.42,.06-.33,.14-.66,.22-.99,.2-.77,.43-1.53,.67-2.28,.53-1.64,1.13-3.27,1.83-4.85,.58-1.31,1.26-2.45,2.11-3.61,1.38-1.87,2.73-3.83,4.54-5.32,1.49-1.23-.64-3.34-2.12-2.12-1.92,1.59-3.37,3.7-4.84,5.7-.95,1.3-1.72,2.55-2.37,4.03-.78,1.79-1.48,3.62-2.09,5.48-.47,1.44-.93,2.93-1.04,4.45-.14,1.93,2.86,1.92,3,0h0Z"/><path d="M249.65,794.45c3.8,1.46,8.06,1.62,11.97,.5,.78-.22,1.26-1.06,1.05-1.85s-1.06-1.27-1.85-1.05c-3.44,.98-7.04,.78-10.38-.5-.76-.29-1.65,.32-1.85,1.05-.23,.85,.29,1.55,1.05,1.85h0Z"/><path d="M389.29,797.08c3.59-.59,7.05-1.83,10.23-3.59,.71-.39,.94-1.36,.54-2.05s-1.34-.93-2.05-.54c-2.96,1.64-6.12,2.73-9.51,3.29-.8,.13-1.25,1.12-1.05,1.85,.23,.85,1.04,1.18,1.85,1.05h0Z"/><path d="M386.01,770.38c3.9,3.64,8.06,7.17,11.26,11.48,.48,.65,1.3,.98,2.05,.54,.64-.37,1.02-1.4,.54-2.05-3.37-4.53-7.62-8.25-11.73-12.08-1.41-1.32-3.54,.8-2.12,2.12h0Z"/></g><g id="Layer_67"><path class="cls-1" d="M302.37,828.71c14.37,.1,28.75-.3,43.1-1.19,1.92-.12,1.93-3.12,0-3-14.35,.89-28.72,1.29-43.1,1.19-1.93-.01-1.93,2.99,0,3h0Z"/><path class="cls-1" d="M303.37,828.06c3.04-.96,6.17-1.65,9.34-1.99s6.53-.28,9.8-.27c6.66,.03,13.36,.16,19.95,1.22,1.89,.3,2.7-2.59,.8-2.89-6.87-1.11-13.81-1.29-20.75-1.33-6.82-.03-13.39,.3-19.94,2.36-1.84,.58-1.05,3.47,.8,2.89h0Z"/><path class="cls-1" d="M345.37,824.62c-5.54-1.56-11.38-1.83-17.11-2.1s-11.66,.29-17.32,1.83c-1.86,.51-1.07,3.4,.8,2.89,5.42-1.47,10.92-1.99,16.52-1.72s11.02,.5,16.31,1.99c1.86,.52,2.66-2.37,.8-2.89h0Z"/></g></svg>